<svg width="563.707" height="47.591" viewBox="0 0 563.707 47.591" xmlns="http://www.w3.org/2000/svg"><g id="svgGroup" stroke-linecap="round" fill-rule="evenodd" font-size="9pt" stroke="#000000" stroke-width="0.25mm" fill="#000000" style="stroke:#000000;stroke-width:0.25mm;fill:#000000"><path d="M 420.402 37.578 L 417.352 11.778 L 423.502 11.778 L 425.352 32.678 L 425.852 32.678 L 428.902 11.778 L 435.402 11.778 L 438.402 32.678 L 438.902 32.678 L 440.802 11.778 L 446.652 11.778 L 443.602 37.578 L 434.802 37.578 L 432.252 19.778 L 431.752 19.778 L 429.202 37.578 L 420.402 37.578 Z M 510.252 37.578 L 510.252 0.578 L 517.652 0.578 L 517.652 21.578 L 518.002 21.578 L 521.452 17.528 L 526.852 11.778 L 535.352 11.778 L 525.352 21.978 L 536.402 37.578 L 527.602 37.578 L 520.102 26.178 L 517.652 28.628 L 517.652 37.578 L 510.252 37.578 Z M 44.652 22.628 L 48.502 11.778 L 56.052 11.778 L 43.902 41.728 Q 42.752 44.578 40.852 46.078 Q 38.952 47.578 35.652 47.578 L 30.552 47.578 L 30.552 41.828 L 36.752 41.828 L 38.352 37.428 L 27.952 11.778 L 35.902 11.778 L 39.652 22.628 L 42.002 30.128 L 42.402 30.128 L 44.652 22.628 Z M 157.652 37.578 L 150.252 37.578 L 150.252 11.778 L 157.652 11.778 L 157.652 16.478 L 157.952 16.478 Q 158.402 15.378 159.052 14.428 Q 159.702 13.478 160.627 12.753 Q 161.552 12.028 162.777 11.603 Q 164.002 11.178 165.552 11.178 Q 167.402 11.178 168.952 11.803 Q 170.502 12.428 171.602 13.678 Q 172.702 14.928 173.327 16.728 Q 173.952 18.528 173.952 20.878 L 173.952 37.578 L 166.552 37.578 L 166.552 21.878 Q 166.552 16.878 162.202 16.878 Q 161.352 16.878 160.527 17.103 Q 159.702 17.328 159.052 17.803 Q 158.402 18.278 158.027 18.978 Q 157.652 19.678 157.652 20.628 L 157.652 37.578 Z M 337.652 37.578 L 330.252 37.578 L 330.252 11.778 L 337.652 11.778 L 337.652 16.478 L 337.952 16.478 Q 338.402 15.378 339.052 14.428 Q 339.702 13.478 340.627 12.753 Q 341.552 12.028 342.777 11.603 Q 344.002 11.178 345.552 11.178 Q 347.402 11.178 348.952 11.803 Q 350.502 12.428 351.602 13.678 Q 352.702 14.928 353.327 16.728 Q 353.952 18.528 353.952 20.878 L 353.952 37.578 L 346.552 37.578 L 346.552 21.878 Q 346.552 16.878 342.202 16.878 Q 341.352 16.878 340.527 17.103 Q 339.702 17.328 339.052 17.803 Q 338.402 18.278 338.027 18.978 Q 337.652 19.678 337.652 20.628 L 337.652 37.578 Z M 539.452 33.328 L 543.602 29.478 Q 545.102 31.128 547.127 32.053 Q 549.152 32.978 551.752 32.978 Q 553.952 32.978 555.202 32.303 Q 556.452 31.628 556.452 30.228 Q 556.452 29.128 555.602 28.703 Q 554.752 28.278 553.252 28.028 L 549.102 27.378 Q 547.352 27.128 545.852 26.603 Q 544.352 26.078 543.252 25.178 Q 542.152 24.278 541.502 22.978 Q 540.852 21.678 540.852 19.828 Q 540.852 15.778 543.952 13.478 Q 547.052 11.178 552.652 11.178 Q 556.452 11.178 559.127 12.203 Q 561.802 13.228 563.402 15.128 L 559.702 19.328 Q 558.552 18.078 556.752 17.228 Q 554.952 16.378 552.402 16.378 Q 548.102 16.378 548.102 18.978 Q 548.102 20.128 548.952 20.553 Q 549.802 20.978 551.302 21.228 L 555.402 21.878 Q 557.152 22.128 558.652 22.653 Q 560.152 23.178 561.277 24.078 Q 562.402 24.978 563.052 26.278 Q 563.702 27.578 563.702 29.428 Q 563.702 33.478 560.577 35.828 Q 557.452 38.178 551.702 38.178 Q 547.402 38.178 544.227 36.878 Q 541.052 35.578 539.452 33.328 Z M 120.702 37.578 L 120.702 31.828 L 126.652 31.828 L 126.652 17.528 L 120.702 17.528 L 120.702 11.778 L 134.052 11.778 L 134.052 19.078 L 134.402 19.078 Q 134.752 17.678 135.377 16.353 Q 136.002 15.028 136.977 14.003 Q 137.952 12.978 139.352 12.378 Q 140.752 11.778 142.652 11.778 L 145.102 11.778 L 145.102 18.578 L 139.602 18.578 Q 136.852 18.578 135.452 20.203 Q 134.052 21.828 134.052 24.178 L 134.052 31.828 L 142.552 31.828 L 142.552 37.578 L 120.702 37.578 Z M 480.702 37.578 L 480.702 31.828 L 486.652 31.828 L 486.652 17.528 L 480.702 17.528 L 480.702 11.778 L 494.052 11.778 L 494.052 19.078 L 494.402 19.078 Q 494.752 17.678 495.377 16.353 Q 496.002 15.028 496.977 14.003 Q 497.952 12.978 499.352 12.378 Q 500.752 11.778 502.652 11.778 L 505.102 11.778 L 505.102 18.578 L 499.602 18.578 Q 496.852 18.578 495.452 20.203 Q 494.052 21.828 494.052 24.178 L 494.052 31.828 L 502.552 31.828 L 502.552 37.578 L 480.702 37.578 Z M 233.552 37.578 L 224.002 37.578 Q 220.002 37.578 218.052 35.478 Q 216.102 33.378 216.102 30.128 L 216.102 17.528 L 209.102 17.528 L 209.102 11.778 L 213.652 11.778 Q 215.302 11.778 216.002 11.128 Q 216.702 10.478 216.702 8.728 L 216.702 2.678 L 223.502 2.678 L 223.502 11.778 L 233.552 11.778 L 233.552 17.528 L 223.502 17.528 L 223.502 31.828 L 233.552 31.828 L 233.552 37.578 Z M 413.552 37.578 L 404.002 37.578 Q 400.002 37.578 398.052 35.478 Q 396.102 33.378 396.102 30.128 L 396.102 17.528 L 389.102 17.528 L 389.102 11.778 L 393.652 11.778 Q 395.302 11.778 396.002 11.128 Q 396.702 10.478 396.702 8.728 L 396.702 2.678 L 403.502 2.678 L 403.502 11.778 L 413.552 11.778 L 413.552 17.528 L 403.502 17.528 L 403.502 31.828 L 413.552 31.828 L 413.552 37.578 Z M 59.952 37.578 L 59.952 0.578 L 67.352 0.578 L 67.352 16.478 L 67.702 16.478 Q 68.652 14.178 70.452 12.678 Q 72.252 11.178 75.352 11.178 Q 77.502 11.178 79.277 11.978 Q 81.052 12.778 82.327 14.428 Q 83.602 16.078 84.327 18.628 Q 85.052 21.178 85.052 24.678 Q 85.052 28.178 84.327 30.728 Q 83.602 33.278 82.327 34.928 Q 81.052 36.578 79.277 37.378 Q 77.502 38.178 75.352 38.178 Q 72.252 38.178 70.452 36.703 Q 68.652 35.228 67.702 32.878 L 67.352 32.878 L 67.352 37.578 L 59.952 37.578 Z M 114.502 24.278 L 114.502 26.478 L 96.852 26.478 L 96.852 26.928 Q 96.852 29.428 98.402 30.953 Q 99.952 32.478 102.952 32.478 Q 105.252 32.478 106.902 31.603 Q 108.552 30.728 109.752 29.278 L 113.752 33.628 Q 112.252 35.478 109.552 36.828 Q 106.852 38.178 102.702 38.178 Q 96.202 38.178 92.852 34.578 Q 89.502 30.978 89.502 24.778 Q 89.502 21.628 90.377 19.103 Q 91.252 16.578 92.877 14.803 Q 94.502 13.028 96.827 12.103 Q 99.152 11.178 102.052 11.178 Q 104.952 11.178 107.252 12.103 Q 109.552 13.028 111.152 14.728 Q 112.752 16.428 113.627 18.853 Q 114.502 21.278 114.502 24.278 Z M 204.502 24.278 L 204.502 26.478 L 186.852 26.478 L 186.852 26.928 Q 186.852 29.428 188.402 30.953 Q 189.952 32.478 192.952 32.478 Q 195.252 32.478 196.902 31.603 Q 198.552 30.728 199.752 29.278 L 203.752 33.628 Q 202.252 35.478 199.552 36.828 Q 196.852 38.178 192.702 38.178 Q 186.202 38.178 182.852 34.578 Q 179.502 30.978 179.502 24.778 Q 179.502 21.628 180.377 19.103 Q 181.252 16.578 182.877 14.803 Q 184.502 13.028 186.827 12.103 Q 189.152 11.178 192.052 11.178 Q 194.952 11.178 197.252 12.103 Q 199.552 13.028 201.152 14.728 Q 202.752 16.428 203.627 18.853 Q 204.502 21.278 204.502 24.278 Z M 384.502 24.278 L 384.502 26.478 L 366.852 26.478 L 366.852 26.928 Q 366.852 29.428 368.402 30.953 Q 369.952 32.478 372.952 32.478 Q 375.252 32.478 376.902 31.603 Q 378.552 30.728 379.752 29.278 L 383.752 33.628 Q 382.252 35.478 379.552 36.828 Q 376.852 38.178 372.702 38.178 Q 366.202 38.178 362.852 34.578 Q 359.502 30.978 359.502 24.778 Q 359.502 21.628 360.377 19.103 Q 361.252 16.578 362.877 14.803 Q 364.502 13.028 366.827 12.103 Q 369.152 11.178 372.052 11.178 Q 374.952 11.178 377.252 12.103 Q 379.552 13.028 381.152 14.728 Q 382.752 16.428 383.627 18.853 Q 384.502 21.278 384.502 24.278 Z M 23.752 17.478 L 18.052 20.578 Q 17.352 19.078 16.227 18.078 Q 15.102 17.078 13.002 17.078 Q 10.452 17.078 9.077 18.553 Q 7.702 20.028 7.702 22.578 L 7.702 26.778 Q 7.702 29.328 9.077 30.803 Q 10.452 32.278 13.102 32.278 Q 15.252 32.278 16.477 31.278 Q 17.702 30.278 18.552 28.678 L 24.152 31.878 Q 22.752 34.728 20.077 36.453 Q 17.402 38.178 13.052 38.178 Q 10.002 38.178 7.577 37.253 Q 5.152 36.328 3.477 34.578 Q 1.802 32.828 0.902 30.328 Q 0.002 27.828 0.002 24.678 Q 0.002 21.528 0.902 19.028 Q 1.802 16.528 3.477 14.778 Q 5.152 13.028 7.577 12.103 Q 10.002 11.178 13.002 11.178 Q 17.252 11.178 19.827 12.903 Q 22.402 14.628 23.752 17.478 Z M 293.752 17.478 L 288.052 20.578 Q 287.352 19.078 286.227 18.078 Q 285.102 17.078 283.002 17.078 Q 280.452 17.078 279.077 18.553 Q 277.702 20.028 277.702 22.578 L 277.702 26.778 Q 277.702 29.328 279.077 30.803 Q 280.452 32.278 283.102 32.278 Q 285.252 32.278 286.477 31.278 Q 287.702 30.278 288.552 28.678 L 294.152 31.878 Q 292.752 34.728 290.077 36.453 Q 287.402 38.178 283.052 38.178 Q 280.002 38.178 277.577 37.253 Q 275.152 36.328 273.477 34.578 Q 271.802 32.828 270.902 30.328 Q 270.002 27.828 270.002 24.678 Q 270.002 21.528 270.902 19.028 Q 271.802 16.528 273.477 14.778 Q 275.152 13.028 277.577 12.103 Q 280.002 11.178 283.002 11.178 Q 287.252 11.178 289.827 12.903 Q 292.402 14.628 293.752 17.478 Z M 241.702 37.578 L 241.702 31.828 L 249.902 31.828 L 249.902 17.528 L 241.702 17.528 L 241.702 11.778 L 257.302 11.778 L 257.302 31.828 L 264.902 31.828 L 264.902 37.578 L 241.702 37.578 Z M 462.002 38.178 Q 459.002 38.178 456.602 37.253 Q 454.202 36.328 452.527 34.578 Q 450.852 32.828 449.952 30.328 Q 449.052 27.828 449.052 24.678 Q 449.052 21.528 449.952 19.028 Q 450.852 16.528 452.527 14.778 Q 454.202 13.028 456.602 12.103 Q 459.002 11.178 462.002 11.178 Q 465.002 11.178 467.402 12.103 Q 469.802 13.028 471.477 14.778 Q 473.152 16.528 474.052 19.028 Q 474.952 21.528 474.952 24.678 Q 474.952 27.828 474.052 30.328 Q 473.152 32.828 471.477 34.578 Q 469.802 36.328 467.402 37.253 Q 465.002 38.178 462.002 38.178 Z M 324.002 47.178 L 300.002 47.178 L 300.002 41.128 L 324.002 41.128 L 324.002 47.178 Z M 467.302 26.728 Q 467.302 29.578 465.902 31.128 Q 464.502 32.678 462.002 32.678 Q 459.502 32.678 458.102 31.128 Q 456.702 29.578 456.702 26.728 L 456.702 22.628 Q 456.702 19.778 458.102 18.228 Q 459.502 16.678 462.002 16.678 Q 464.502 16.678 465.902 18.228 Q 467.302 19.778 467.302 22.628 L 467.302 26.728 Z M 77.352 26.678 Q 77.352 29.378 76.002 30.903 Q 74.652 32.428 72.152 32.428 Q 70.202 32.428 68.777 31.478 Q 67.352 30.528 67.352 28.478 L 67.352 20.878 Q 67.352 18.828 68.777 17.878 Q 70.202 16.928 72.152 16.928 Q 74.652 16.928 76.002 18.453 Q 77.352 19.978 77.352 22.678 L 77.352 26.678 Z M 249.152 4.978 L 249.152 3.528 Q 249.152 2.028 250.127 1.028 Q 251.102 0.028 253.602 0.028 Q 256.102 0.028 257.077 1.028 Q 258.052 2.028 258.052 3.528 L 258.052 4.978 Q 258.052 6.428 257.077 7.453 Q 256.102 8.478 253.602 8.478 Q 251.102 8.478 250.127 7.453 Q 249.152 6.428 249.152 4.978 Z M 96.852 21.928 Q 96.852 19.428 98.277 17.953 Q 99.702 16.478 102.102 16.478 Q 104.502 16.478 105.877 17.928 Q 107.252 19.378 107.252 21.928 L 107.252 22.328 L 96.852 22.328 L 96.852 21.928 Z M 186.852 21.928 Q 186.852 19.428 188.277 17.953 Q 189.702 16.478 192.102 16.478 Q 194.502 16.478 195.877 17.928 Q 197.252 19.378 197.252 21.928 L 197.252 22.328 L 186.852 22.328 L 186.852 21.928 Z M 366.852 21.928 Q 366.852 19.428 368.277 17.953 Q 369.702 16.478 372.102 16.478 Q 374.502 16.478 375.877 17.928 Q 377.252 19.378 377.252 21.928 L 377.252 22.328 L 366.852 22.328 L 366.852 21.928 Z"/></g></svg>