<svg width="262.7" height="36.145" viewBox="0 0 262.7 36.145" xmlns="http://www.w3.org/2000/svg"><g id="svgGroup" stroke-linecap="round" fill-rule="evenodd" font-size="9pt" stroke="#000000" stroke-width="0.25mm" fill="#000000" style="stroke:#000000;stroke-width:0.25mm;fill:#000000"><path d="M 108.55 35.522 L 108.55 18.022 L 108.55 6.972 L 108.15 6.972 L 100.8 24.922 L 93.45 6.972 L 93.05 6.972 L 93.05 18.022 L 93.05 35.522 L 89.2 35.522 L 89.2 0.622 L 94.6 0.622 L 100.75 16.022 L 101.05 16.022 L 107.2 0.622 L 112.4 0.622 L 112.4 35.522 L 108.55 35.522 Z M 141.8 35.522 L 120.3 35.522 L 120.3 0.622 L 141.8 0.622 L 141.8 4.272 L 124.5 4.272 L 124.5 16.022 L 141.2 16.022 L 141.2 19.672 L 124.5 19.672 L 124.5 31.872 L 141.8 31.872 L 141.8 35.522 Z M 28.05 29.972 L 31.1 27.472 Q 33.15 30.022 35.425 31.272 Q 37.7 32.522 40.85 32.522 Q 44.65 32.522 46.65 30.772 Q 48.65 29.022 48.65 25.872 Q 48.65 23.322 47.2 21.897 Q 45.75 20.472 42.15 19.872 L 38.25 19.222 Q 35.7 18.772 33.975 17.872 Q 32.25 16.972 31.2 15.697 Q 30.15 14.422 29.7 12.897 Q 29.25 11.372 29.25 9.722 Q 29.25 4.922 32.4 2.472 Q 35.55 0.022 40.9 0.022 Q 45.1 0.022 47.975 1.422 Q 50.85 2.822 52.6 5.372 L 49.65 7.922 Q 48.2 6.022 46.15 4.822 Q 44.1 3.622 40.85 3.622 Q 37.3 3.622 35.4 5.122 Q 33.5 6.622 33.5 9.622 Q 33.5 11.972 34.925 13.447 Q 36.35 14.922 40.05 15.572 L 43.8 16.222 Q 46.35 16.672 48.1 17.572 Q 49.85 18.472 50.925 19.722 Q 52 20.972 52.45 22.522 Q 52.9 24.072 52.9 25.772 Q 52.9 30.622 49.725 33.372 Q 46.55 36.122 40.7 36.122 Q 36 36.122 33 34.397 Q 30 32.672 28.05 29.972 Z M 231.6 35.522 L 210 35.522 L 210 32.172 L 218.7 32.172 L 218.7 3.972 L 210 3.972 L 210 0.622 L 231.6 0.622 L 231.6 3.972 L 222.9 3.972 L 222.9 32.172 L 231.6 32.172 L 231.6 35.522 Z M 21.6 35.522 L 0 35.522 L 0 32.172 L 8.7 32.172 L 8.7 3.972 L 0 3.972 L 0 0.622 L 21.6 0.622 L 21.6 3.972 L 12.9 3.972 L 12.9 32.172 L 21.6 32.172 L 21.6 35.522 Z M 262.7 7.672 L 259.1 9.322 Q 258.65 8.172 258.05 7.147 Q 257.45 6.122 256.625 5.347 Q 255.8 4.572 254.675 4.122 Q 253.55 3.672 251.95 3.672 Q 247.8 3.672 245.775 6.822 Q 243.75 9.972 243.75 15.222 L 243.75 20.922 Q 243.75 26.172 245.775 29.322 Q 247.8 32.472 251.95 32.472 Q 253.55 32.472 254.675 32.022 Q 255.8 31.572 256.625 30.797 Q 257.45 30.022 258.05 28.997 Q 258.65 27.972 259.1 26.822 L 262.7 28.472 Q 262.05 29.922 261.2 31.272 Q 260.35 32.622 259.1 33.722 Q 257.85 34.822 256.1 35.472 Q 254.35 36.122 251.95 36.122 Q 245.55 36.122 242.425 31.472 Q 239.3 26.822 239.3 18.072 Q 239.3 9.322 242.425 4.672 Q 245.55 0.022 251.95 0.022 Q 254.35 0.022 256.1 0.672 Q 257.85 1.322 259.1 2.422 Q 260.35 3.522 261.2 4.897 Q 262.05 6.272 262.7 7.672 Z M 184.5 20.622 L 184.5 35.522 L 180.3 35.522 L 180.3 0.622 L 193 0.622 Q 197.85 0.622 200.4 3.272 Q 202.95 5.922 202.95 10.672 Q 202.95 14.922 200.75 17.472 Q 198.55 20.022 194.35 20.422 L 203.25 35.522 L 198.55 35.522 L 190.05 20.622 L 184.5 20.622 Z M 174.55 4.272 L 162.9 4.272 L 162.9 35.522 L 158.7 35.522 L 158.7 4.272 L 147.05 4.272 L 147.05 0.622 L 174.55 0.622 L 174.55 4.272 Z M 70.8 36.122 Q 67.6 36.122 65.3 34.897 Q 63 33.672 61.5 31.372 Q 60 29.072 59.3 25.722 Q 58.6 22.372 58.6 18.072 Q 58.6 13.822 59.3 10.447 Q 60 7.072 61.5 4.772 Q 63 2.472 65.3 1.247 Q 67.6 0.022 70.8 0.022 Q 74 0.022 76.3 1.247 Q 78.6 2.472 80.1 4.772 Q 81.6 7.072 82.3 10.447 Q 83 13.822 83 18.072 Q 83 22.372 82.3 25.722 Q 81.6 29.072 80.1 31.372 Q 78.6 33.672 76.3 34.897 Q 74 36.122 70.8 36.122 Z M 78.55 20.922 Q 78.55 23.572 78.125 25.697 Q 77.7 27.822 76.75 29.322 Q 75.8 30.822 74.35 31.647 Q 72.9 32.472 70.8 32.472 Q 68.7 32.472 67.25 31.647 Q 65.8 30.822 64.85 29.322 Q 63.9 27.822 63.475 25.697 Q 63.05 23.572 63.05 20.922 L 63.05 15.222 Q 63.05 12.622 63.475 10.472 Q 63.9 8.322 64.85 6.822 Q 65.8 5.322 67.25 4.497 Q 68.7 3.672 70.8 3.672 Q 72.9 3.672 74.35 4.497 Q 75.8 5.322 76.75 6.822 Q 77.7 8.322 78.125 10.472 Q 78.55 12.622 78.55 15.222 L 78.55 20.922 Z M 184.5 17.072 L 184.5 4.272 L 192.9 4.272 Q 195.55 4.272 197.025 5.597 Q 198.5 6.922 198.5 9.372 L 198.5 11.972 Q 198.5 14.422 197.025 15.747 Q 195.55 17.072 192.9 17.072 L 184.5 17.072 Z"/></g></svg>