<svg width="561.306" height="37.633" viewBox="0 0 561.306 37.633" xmlns="http://www.w3.org/2000/svg"><g id="svgGroup" stroke-linecap="round" fill-rule="evenodd" font-size="9pt" stroke="#000000" stroke-width="0.25mm" fill="#000000" style="stroke:#000000;stroke-width:0.25mm;fill:#000000"><path d="M 121.5 37.02 L 117.8 37.02 L 117.8 11.22 L 121.5 11.22 L 121.5 14.22 L 121.7 14.22 Q 122.3 12.72 123.4 11.67 Q 124.5 10.62 126.65 10.62 Q 128.9 10.62 130 11.745 Q 131.1 12.87 131.35 14.67 L 131.5 14.67 Q 132.2 12.92 133.5 11.77 Q 134.8 10.62 137.1 10.62 Q 140.25 10.62 141.325 12.82 Q 142.4 15.02 142.4 19.12 L 142.4 37.02 L 138.7 37.02 L 138.7 19.77 Q 138.7 16.47 138.025 15.195 Q 137.35 13.92 135.55 13.92 Q 133.95 13.92 132.95 14.945 Q 131.95 15.97 131.95 18.07 L 131.95 37.02 L 128.25 37.02 L 128.25 19.77 Q 128.25 16.47 127.575 15.195 Q 126.9 13.92 125.15 13.92 Q 123.55 13.92 122.525 14.945 Q 121.5 15.97 121.5 18.07 L 121.5 37.02 Z M 511.5 37.02 L 507.8 37.02 L 507.8 11.22 L 511.5 11.22 L 511.5 14.22 L 511.7 14.22 Q 512.3 12.72 513.4 11.67 Q 514.5 10.62 516.65 10.62 Q 518.9 10.62 520 11.745 Q 521.1 12.87 521.35 14.67 L 521.5 14.67 Q 522.2 12.92 523.5 11.77 Q 524.8 10.62 527.1 10.62 Q 530.25 10.62 531.325 12.82 Q 532.4 15.02 532.4 19.12 L 532.4 37.02 L 528.7 37.02 L 528.7 19.77 Q 528.7 16.47 528.025 15.195 Q 527.35 13.92 525.55 13.92 Q 523.95 13.92 522.95 14.945 Q 521.95 15.97 521.95 18.07 L 521.95 37.02 L 518.25 37.02 L 518.25 19.77 Q 518.25 16.47 517.575 15.195 Q 516.9 13.92 515.15 13.92 Q 513.55 13.92 512.525 14.945 Q 511.5 15.97 511.5 18.07 L 511.5 37.02 Z M 419.25 37.02 L 419.25 33.62 L 427.95 33.62 L 427.95 14.62 L 418.75 14.62 L 418.75 11.22 L 427.95 11.22 L 427.95 5.92 Q 427.95 3.32 429.325 1.67 Q 430.7 0.02 433.65 0.02 L 442.3 0.02 L 442.3 3.42 L 431.95 3.42 L 431.95 11.22 L 442.3 11.22 L 442.3 14.62 L 431.95 14.62 L 431.95 33.62 L 441.15 33.62 L 441.15 37.02 L 419.25 37.02 Z M 538.45 32.57 L 541.15 30.22 Q 543 32.17 545.2 33.22 Q 547.4 34.27 550.5 34.27 Q 553.5 34.27 555.425 33.195 Q 557.35 32.12 557.35 29.82 Q 557.35 28.82 556.975 28.145 Q 556.6 27.47 555.95 27.07 Q 555.3 26.67 554.5 26.445 Q 553.7 26.22 552.8 26.07 L 548.75 25.47 Q 547.4 25.27 545.825 24.92 Q 544.25 24.57 542.95 23.795 Q 541.65 23.02 540.775 21.72 Q 539.9 20.42 539.9 18.32 Q 539.9 16.37 540.675 14.945 Q 541.45 13.52 542.85 12.545 Q 544.25 11.57 546.15 11.095 Q 548.05 10.62 550.3 10.62 Q 553.8 10.62 556.375 11.72 Q 558.95 12.82 560.8 14.77 L 558.2 17.22 Q 557.75 16.67 557.075 16.095 Q 556.4 15.52 555.425 15.045 Q 554.45 14.57 553.15 14.27 Q 551.85 13.97 550.15 13.97 Q 547.1 13.97 545.475 15.02 Q 543.85 16.07 543.85 18.07 Q 543.85 19.07 544.225 19.745 Q 544.6 20.42 545.25 20.82 Q 545.9 21.22 546.725 21.445 Q 547.55 21.67 548.4 21.82 L 552.45 22.42 Q 553.85 22.62 555.4 22.97 Q 556.95 23.32 558.25 24.095 Q 559.55 24.87 560.425 26.17 Q 561.3 27.47 561.3 29.57 Q 561.3 33.42 558.325 35.52 Q 555.35 37.62 550.4 37.62 Q 546.35 37.62 543.425 36.245 Q 540.5 34.87 538.45 32.57 Z M 238.95 37.02 L 238.95 33.62 L 246.5 33.62 L 246.5 14.62 L 238.95 14.62 L 238.95 11.22 L 250.5 11.22 L 250.5 17.72 L 250.75 17.72 Q 251.55 14.67 253.775 12.945 Q 256 11.22 259.45 11.22 L 263.05 11.22 L 263.05 15.22 L 258.2 15.22 Q 254.75 15.22 252.625 17.22 Q 250.5 19.22 250.5 22.47 L 250.5 33.62 L 260.5 33.62 L 260.5 37.02 L 238.95 37.02 Z M 478.95 37.02 L 478.95 33.62 L 486.5 33.62 L 486.5 14.62 L 478.95 14.62 L 478.95 11.22 L 490.5 11.22 L 490.5 17.72 L 490.75 17.72 Q 491.55 14.67 493.775 12.945 Q 496 11.22 499.45 11.22 L 503.05 11.22 L 503.05 15.22 L 498.2 15.22 Q 494.75 15.22 492.625 17.22 Q 490.5 19.22 490.5 22.47 L 490.5 33.62 L 500.5 33.62 L 500.5 37.02 L 478.95 37.02 Z M 381.4 37.02 L 371.35 37.02 Q 368.4 37.02 367.025 35.37 Q 365.65 33.72 365.65 31.12 L 365.65 14.62 L 357.05 14.62 L 357.05 11.22 L 363.45 11.22 Q 364.75 11.22 365.275 10.695 Q 365.8 10.17 365.8 8.87 L 365.8 2.12 L 369.65 2.12 L 369.65 11.22 L 381.4 11.22 L 381.4 14.62 L 369.65 14.62 L 369.65 33.62 L 381.4 33.62 L 381.4 37.02 Z M 201.4 37.02 L 191.35 37.02 Q 188.4 37.02 187.025 35.37 Q 185.65 33.72 185.65 31.12 L 185.65 14.62 L 177.05 14.62 L 177.05 11.22 L 183.45 11.22 Q 184.75 11.22 185.275 10.695 Q 185.8 10.17 185.8 8.87 L 185.8 2.12 L 189.65 2.12 L 189.65 11.22 L 201.4 11.22 L 201.4 14.62 L 189.65 14.62 L 189.65 33.62 L 201.4 33.62 L 201.4 37.02 Z M 334 37.02 L 330 37.02 L 330 11.22 L 334 11.22 L 334 15.42 L 334.2 15.42 Q 334.6 14.47 335.2 13.595 Q 335.8 12.72 336.675 12.07 Q 337.55 11.42 338.75 11.02 Q 339.95 10.62 341.55 10.62 Q 345.6 10.62 348.05 13.195 Q 350.5 15.77 350.5 20.47 L 350.5 37.02 L 346.5 37.02 L 346.5 21.17 Q 346.5 17.62 344.95 15.895 Q 343.4 14.17 340.4 14.17 Q 339.2 14.17 338.05 14.47 Q 336.9 14.77 336 15.37 Q 335.1 15.97 334.55 16.92 Q 334 17.87 334 19.12 L 334 37.02 Z M 4 37.02 L 0 37.02 L 0 11.22 L 4 11.22 L 4 15.42 L 4.2 15.42 Q 4.6 14.47 5.2 13.595 Q 5.8 12.72 6.675 12.07 Q 7.55 11.42 8.75 11.02 Q 9.95 10.62 11.55 10.62 Q 15.6 10.62 18.05 13.195 Q 20.5 15.77 20.5 20.47 L 20.5 37.02 L 16.5 37.02 L 16.5 21.17 Q 16.5 17.62 14.95 15.895 Q 13.4 14.17 10.4 14.17 Q 9.2 14.17 8.05 14.47 Q 6.9 14.77 6 15.37 Q 5.1 15.97 4.55 16.92 Q 4 17.87 4 19.12 L 4 37.02 Z M 64 37.02 L 60 37.02 L 60 11.22 L 64 11.22 L 64 15.42 L 64.2 15.42 Q 64.6 14.47 65.2 13.595 Q 65.8 12.72 66.675 12.07 Q 67.55 11.42 68.75 11.02 Q 69.95 10.62 71.55 10.62 Q 75.6 10.62 78.05 13.195 Q 80.5 15.77 80.5 20.47 L 80.5 37.02 L 76.5 37.02 L 76.5 21.17 Q 76.5 17.62 74.95 15.895 Q 73.4 14.17 70.4 14.17 Q 69.2 14.17 68.05 14.47 Q 66.9 14.77 66 15.37 Q 65.1 15.97 64.55 16.92 Q 64 17.87 64 19.12 L 64 37.02 Z M 322.6 37.02 L 319.85 37.02 Q 317.5 37.02 316.5 35.82 Q 315.5 34.62 315.25 32.82 L 315 32.82 Q 314.15 35.07 312.275 36.345 Q 310.4 37.62 307.25 37.62 Q 303.2 37.62 300.8 35.52 Q 298.4 33.42 298.4 29.77 Q 298.4 26.17 301.025 24.22 Q 303.65 22.27 309.5 22.27 L 315 22.27 L 315 19.72 Q 315 16.87 313.4 15.445 Q 311.8 14.02 308.85 14.02 Q 306.25 14.02 304.6 15.045 Q 302.95 16.07 301.95 17.82 L 299.25 15.82 Q 299.75 14.82 300.6 13.87 Q 301.45 12.92 302.7 12.195 Q 303.95 11.47 305.55 11.045 Q 307.15 10.62 309.1 10.62 Q 313.65 10.62 316.325 12.92 Q 319 15.22 319 19.32 L 319 33.52 L 322.6 33.52 L 322.6 37.02 Z M 472.6 37.02 L 469.85 37.02 Q 467.5 37.02 466.5 35.82 Q 465.5 34.62 465.25 32.82 L 465 32.82 Q 464.15 35.07 462.275 36.345 Q 460.4 37.62 457.25 37.62 Q 453.2 37.62 450.8 35.52 Q 448.4 33.42 448.4 29.77 Q 448.4 26.17 451.025 24.22 Q 453.65 22.27 459.5 22.27 L 465 22.27 L 465 19.72 Q 465 16.87 463.4 15.445 Q 461.8 14.02 458.85 14.02 Q 456.25 14.02 454.6 15.045 Q 452.95 16.07 451.95 17.82 L 449.25 15.82 Q 449.75 14.82 450.6 13.87 Q 451.45 12.92 452.7 12.195 Q 453.95 11.47 455.55 11.045 Q 457.15 10.62 459.1 10.62 Q 463.65 10.62 466.325 12.92 Q 469 15.22 469 19.32 L 469 33.52 L 472.6 33.52 L 472.6 37.02 Z M 52.6 37.02 L 49.85 37.02 Q 47.5 37.02 46.5 35.82 Q 45.5 34.62 45.25 32.82 L 45 32.82 Q 44.15 35.07 42.275 36.345 Q 40.4 37.62 37.25 37.62 Q 33.2 37.62 30.8 35.52 Q 28.4 33.42 28.4 29.77 Q 28.4 26.17 31.025 24.22 Q 33.65 22.27 39.5 22.27 L 45 22.27 L 45 19.72 Q 45 16.87 43.4 15.445 Q 41.8 14.02 38.85 14.02 Q 36.25 14.02 34.6 15.045 Q 32.95 16.07 31.95 17.82 L 29.25 15.82 Q 29.75 14.82 30.6 13.87 Q 31.45 12.92 32.7 12.195 Q 33.95 11.47 35.55 11.045 Q 37.15 10.62 39.1 10.62 Q 43.65 10.62 46.325 12.92 Q 49 15.22 49 19.32 L 49 33.52 L 52.6 33.52 L 52.6 37.02 Z M 171.75 23.22 L 171.75 25.12 L 152.65 25.12 L 152.65 26.32 Q 152.65 28.02 153.2 29.47 Q 153.75 30.92 154.775 31.97 Q 155.8 33.02 157.275 33.595 Q 158.75 34.17 160.55 34.17 Q 163.15 34.17 165.05 32.97 Q 166.95 31.77 167.95 29.67 L 170.9 31.67 Q 169.75 34.27 167.075 35.945 Q 164.4 37.62 160.55 37.62 Q 157.75 37.62 155.525 36.67 Q 153.3 35.72 151.725 33.945 Q 150.15 32.17 149.3 29.695 Q 148.45 27.22 148.45 24.17 Q 148.45 21.07 149.325 18.57 Q 150.2 16.07 151.75 14.295 Q 153.3 12.52 155.475 11.57 Q 157.65 10.62 160.3 10.62 Q 162.9 10.62 165.025 11.57 Q 167.15 12.52 168.65 14.195 Q 170.15 15.87 170.95 18.17 Q 171.75 20.47 171.75 23.22 Z M 231.75 23.22 L 231.75 25.12 L 212.65 25.12 L 212.65 26.32 Q 212.65 28.02 213.2 29.47 Q 213.75 30.92 214.775 31.97 Q 215.8 33.02 217.275 33.595 Q 218.75 34.17 220.55 34.17 Q 223.15 34.17 225.05 32.97 Q 226.95 31.77 227.95 29.67 L 230.9 31.67 Q 229.75 34.27 227.075 35.945 Q 224.4 37.62 220.55 37.62 Q 217.75 37.62 215.525 36.67 Q 213.3 35.72 211.725 33.945 Q 210.15 32.17 209.3 29.695 Q 208.45 27.22 208.45 24.17 Q 208.45 21.07 209.325 18.57 Q 210.2 16.07 211.75 14.295 Q 213.3 12.52 215.475 11.57 Q 217.65 10.62 220.3 10.62 Q 222.9 10.62 225.025 11.57 Q 227.15 12.52 228.65 14.195 Q 230.15 15.87 230.95 18.17 Q 231.75 20.47 231.75 23.22 Z M 100.1 37.62 Q 97.4 37.62 95.225 36.67 Q 93.05 35.72 91.525 33.945 Q 90 32.17 89.2 29.695 Q 88.4 27.22 88.4 24.12 Q 88.4 21.07 89.2 18.57 Q 90 16.07 91.525 14.295 Q 93.05 12.52 95.225 11.57 Q 97.4 10.62 100.1 10.62 Q 102.8 10.62 104.975 11.57 Q 107.15 12.52 108.675 14.295 Q 110.2 16.07 111 18.57 Q 111.8 21.07 111.8 24.12 Q 111.8 27.22 111 29.695 Q 110.2 32.17 108.675 33.945 Q 107.15 35.72 104.975 36.67 Q 102.8 37.62 100.1 37.62 Z M 107.55 25.97 Q 107.55 30.17 105.5 32.17 Q 103.45 34.17 100.1 34.17 Q 96.75 34.17 94.7 32.17 Q 92.65 30.17 92.65 25.97 L 92.65 22.27 Q 92.65 18.07 94.7 16.07 Q 96.75 14.07 100.1 14.07 Q 103.45 14.07 105.5 16.07 Q 107.55 18.07 107.55 22.27 L 107.55 25.97 Z M 152.65 21.77 Q 152.65 20.07 153.225 18.645 Q 153.8 17.22 154.825 16.17 Q 155.85 15.12 157.25 14.52 Q 158.65 13.92 160.3 13.92 Q 161.9 13.92 163.225 14.47 Q 164.55 15.02 165.475 16.045 Q 166.4 17.07 166.925 18.47 Q 167.45 19.87 167.45 21.57 L 167.45 22.12 L 152.65 22.12 L 152.65 21.77 Z M 212.65 21.77 Q 212.65 20.07 213.225 18.645 Q 213.8 17.22 214.825 16.17 Q 215.85 15.12 217.25 14.52 Q 218.65 13.92 220.3 13.92 Q 221.9 13.92 223.225 14.47 Q 224.55 15.02 225.475 16.045 Q 226.4 17.07 226.925 18.47 Q 227.45 19.87 227.45 21.57 L 227.45 22.12 L 212.65 22.12 L 212.65 21.77 Z M 45 29.52 Q 45 30.52 44.475 31.395 Q 43.95 32.27 43 32.895 Q 42.05 33.52 40.775 33.895 Q 39.5 34.27 37.95 34.27 Q 35.45 34.27 34.025 33.245 Q 32.6 32.22 32.6 30.22 L 32.6 29.17 Q 32.6 27.27 34.25 26.27 Q 35.9 25.27 39.5 25.27 L 45 25.27 L 45 29.52 Z M 315 29.52 Q 315 30.52 314.475 31.395 Q 313.95 32.27 313 32.895 Q 312.05 33.52 310.775 33.895 Q 309.5 34.27 307.95 34.27 Q 305.45 34.27 304.025 33.245 Q 302.6 32.22 302.6 30.22 L 302.6 29.17 Q 302.6 27.27 304.25 26.27 Q 305.9 25.27 309.5 25.27 L 315 25.27 L 315 29.52 Z M 465 29.52 Q 465 30.52 464.475 31.395 Q 463.95 32.27 463 32.895 Q 462.05 33.52 460.775 33.895 Q 459.5 34.27 457.95 34.27 Q 455.45 34.27 454.025 33.245 Q 452.6 32.22 452.6 30.22 L 452.6 29.17 Q 452.6 27.27 454.25 26.27 Q 455.9 25.27 459.5 25.27 L 465 25.27 L 465 29.52 Z"/></g></svg>