<?xml version="1.0" encoding="UTF-8" standalone="no"?>
<!-- Created with Inkscape (http://www.inkscape.org/) -->

<svg
   width="210mm"
   height="297mm"
   viewBox="0 0 210 297"
   version="1.1"
   id="svg5"
   sodipodi:docname="BENG_drawing.svg"
   inkscape:version="1.1.2 (0a00cf5339, 2022-02-04)"
   xmlns:inkscape="http://www.inkscape.org/namespaces/inkscape"
   xmlns:sodipodi="http://sodipodi.sourceforge.net/DTD/sodipodi-0.dtd"
   xmlns="http://www.w3.org/2000/svg"
   xmlns:svg="http://www.w3.org/2000/svg">
  <sodipodi:namedview
     id="namedview7"
     pagecolor="#ffffff"
     bordercolor="#666666"
     borderopacity="1.0"
     inkscape:pageshadow="2"
     inkscape:pageopacity="0.0"
     inkscape:pagecheckerboard="0"
     inkscape:document-units="mm"
     showgrid="false"
     inkscape:zoom="0.73"
     inkscape:cx="-38.356164"
     inkscape:cy="560.9589"
     inkscape:window-width="1854"
     inkscape:window-height="1016"
     inkscape:window-x="66"
     inkscape:window-y="27"
     inkscape:window-maximized="1"
     inkscape:current-layer="text1023" />
  <defs
     id="defs2">
    <inkscape:path-effect
       effect="perspective-envelope"
       up_left_point="51.320843,115.7893"
       up_right_point="86.166151,115.7893"
       down_left_point="51.320843,123.79396"
       down_right_point="86.166151,123.79396"
       id="path-effect19281"
       is_visible="true"
       lpeversion="1"
       deform_type="envelope_deformation"
       horizontal_mirror="false"
       vertical_mirror="false"
       overflow_perspective="false" />
    <inkscape:path-effect
       effect="perspective-envelope"
       up_left_point="58.581359,115.92883"
       up_right_point="63.552616,115.92883"
       down_left_point="58.581359,123.6441"
       down_right_point="63.552616,123.6441"
       id="path-effect19199"
       is_visible="true"
       lpeversion="1"
       deform_type="perspective"
       horizontal_mirror="false"
       vertical_mirror="false"
       overflow_perspective="false" />
    <inkscape:path-effect
       effect="perspective-envelope"
       up_left_point="51.320843,115.7893"
       up_right_point="86.166151,115.7893"
       down_left_point="51.320843,123.79396"
       down_right_point="86.166151,123.79396"
       id="path-effect18893"
       is_visible="true"
       lpeversion="1"
       deform_type="perspective"
       horizontal_mirror="false"
       vertical_mirror="false"
       overflow_perspective="false" />
    <inkscape:path-effect
       effect="envelope"
       id="path-effect18796"
       is_visible="true"
       lpeversion="1"
       yy="true"
       xx="true"
       bendpath1="M 51.320843,115.7893 H 86.166151"
       bendpath2="m 86.166151,115.7893 v 8.00466"
       bendpath3="M 51.320843,123.79396 H 86.166151"
       bendpath4="m 51.320843,115.7893 v 8.00466" />
    <inkscape:path-effect
       effect="perspective-envelope"
       up_left_point="51.320843,115.7893"
       up_right_point="86.166151,115.7893"
       down_left_point="51.320843,123.79396"
       down_right_point="86.166151,123.79396"
       id="path-effect18794"
       is_visible="true"
       lpeversion="1"
       deform_type="perspective"
       horizontal_mirror="false"
       vertical_mirror="true"
       overflow_perspective="false" />
    <rect
       x="162.3089"
       y="407.38293"
       width="203.38669"
       height="104.81995"
       id="rect17174" />
    <rect
       x="193.96854"
       y="467.31628"
       width="298.29757"
       height="166.84132"
       id="rect14990" />
  </defs>
  <g
     inkscape:label="Layer 1"
     inkscape:groupmode="layer"
     id="layer1">
    <g
       aria-label="BEENG "
       id="text1023"
       style="font-size:10.5833px;line-height:1.25;stroke-width:0.264583"
       transform="matrix(4.1405908,0,0,-8.041897,-186.08413,1232.2581)"
       inkscape:export-filename="/home/jcbevns/beeng.png"
       inkscape:export-xdpi="96"
       inkscape:export-ydpi="96">
      <path
         d="m 53.568,132.045 v -3.26 l 3.5899,0.073 c 1.1086,0.023 1.9001,0.16 2.4004,0.408 0.4973,0.247 0.7424,0.614 0.7424,1.103 0,0.493 -0.2451,0.862 -0.7424,1.109 -0.5003,0.256 -1.2918,0.404 -2.4004,0.442 z m 0,3.658 v -2.681 l 3.3285,-0.17 c 1.0178,-0.052 1.7506,0.01 2.2197,0.183 0.4675,0.174 0.6982,0.462 0.6982,0.867 0,0.401 -0.2307,0.722 -0.6982,0.964 -0.4691,0.246 -1.2019,0.418 -2.2197,0.516 z m -2.4822,1.27 5.9678,-0.675 c 1.5639,-0.177 2.7104,-0.477 3.487,-0.899 0.7542,-0.409 1.1232,-0.913 1.1232,-1.52 0,-0.47 -0.1883,-0.833 -0.569,-1.091 -0.3864,-0.262 -0.9645,-0.413 -1.747,-0.449 0.9375,-0.154 1.6419,-0.416 2.1307,-0.785 0.4854,-0.36 0.7246,-0.795 0.7246,-1.31 0,-0.679 -0.3932,-1.211 -1.1984,-1.605 -0.8309,-0.406 -2.0602,-0.644 -3.7429,-0.706 l -6.176,-0.229 z"
         id="path2215" />
      <path
         d="m 65.0161,135.398 6.2944,-0.712 v -0.709 l -4.7921,0.459 v -2.058 l 4.6118,-0.237 v -0.713 l -4.6118,0.159 v -2.52 l 4.896,0.098 v -0.708 l -6.3983,-0.237 z"
         id="path2217" />
      <path
         d="m 73.2427,134.468 4.4151,-0.499 v -0.602 l -3.3796,0.325 v -1.714 l 3.2503,-0.167 v -0.604 l -3.2503,0.112 v -2.097 l 3.4543,0.069 v -0.6 l -4.4898,-0.166 z"
         id="path2219" />
      <path
         d="m 79.0545,133.811 1.0112,-0.115 2.2252,-4.087 v 3.836 l 0.602,-0.068 v -4.495 l -0.842,-0.031 -2.2616,4.066 v -4.15 l -0.7348,-0.027 z"
         id="path2221" />
      <path
         d="m 86.6343,129.582 v 1.056 l -0.7836,0.019 v 0.451 l 1.2367,-0.051 v -1.66 c -0.1748,-0.148 -0.3704,-0.264 -0.5875,-0.347 -0.2208,-0.083 -0.4606,-0.13 -0.7203,-0.14 -0.5861,-0.023 -1.0629,0.15 -1.4178,0.527 -0.3622,0.39 -0.5467,0.943 -0.5467,1.653 0,0.712 0.1845,1.251 0.5467,1.611 0.3549,0.353 0.8317,0.491 1.4178,0.423 0.2372,-0.028 0.4584,-0.085 0.6643,-0.173 0.2042,-0.086 0.3895,-0.198 0.5564,-0.337 v -0.559 c -0.1685,0.179 -0.3499,0.32 -0.5447,0.423 -0.1978,0.104 -0.4091,0.168 -0.6343,0.19 -0.4552,0.045 -0.8077,-0.062 -1.0489,-0.328 -0.2437,-0.27 -0.3671,-0.695 -0.3671,-1.272 0,-0.576 0.1234,-1.01 0.3671,-1.298 0.2412,-0.284 0.5937,-0.418 1.0489,-0.407 0.1737,0.004 0.3269,0.023 0.4602,0.058 0.1319,0.037 0.2494,0.09 0.3528,0.161 z"
         id="path2223" />
    </g>
    <text
       xml:space="preserve"
       transform="scale(0.26458333)"
       id="text14988"
       style="fill:black;fill-opacity:1;line-height:1.25;stroke:none;font-family:sans-serif;font-style:normal;font-weight:normal;font-size:40px;white-space:pre;shape-inside:url(#rect14990)" />
    <text
       xml:space="preserve"
       transform="scale(0.26458333)"
       id="text17172"
       style="fill:black;fill-opacity:1;line-height:1.25;stroke:none;font-family:sans-serif;font-style:normal;font-weight:normal;font-size:40px;white-space:pre;shape-inside:url(#rect17174)" />
  </g>
</svg>
