<svg width="228.2" height="38.001" viewBox="0 0 228.2 38.001" xmlns="http://www.w3.org/2000/svg"><g id="svgGroup" stroke-linecap="round" fill-rule="evenodd" font-size="9pt" stroke="#000000" stroke-width="0.25mm" fill="#000000" style="stroke:#000000;stroke-width:0.25mm;fill:#000000"><path d="M 47.5 32.801 L 47.5 33.801 L 53.307 33.801 A 9.099 9.099 0 0 1 53.15 33.551 L 53.55 33.551 L 53.4 33.301 L 56.3 33.301 Q 56.2 33.051 56.05 32.801 L 50.75 32.801 L 50.45 32.051 L 53.8 32.051 L 53.65 31.551 L 56.1 31.551 L 55.8 30.551 L 49.55 30.551 L 49.4 30.051 L 49.3 30.051 Q 49.2 29.751 49.2 29.551 L 51.15 29.551 L 51.05 29.051 L 50.95 28.551 L 53.95 28.551 Q 53.9 28.451 53.9 28.301 L 53.9 28.051 L 52.35 28.051 Q 52.35 27.851 52.325 27.676 Q 52.3 27.501 52.3 27.301 L 51.3 27.301 L 51.3 26.926 Q 51.3 26.751 51.25 26.551 L 51.15 26.551 L 51.15 26.301 Q 51.15 26.101 51.125 25.926 Q 51.1 25.751 51.1 25.551 L 50.35 25.551 Q 50.3 25.351 50.3 25.176 L 50.3 24.801 L 51.25 24.801 L 51.25 23.801 L 51.5 23.801 L 51.5 23.551 L 51.6 23.551 L 51.6 22.551 L 52.65 22.551 L 52.65 22.501 L 52.65 22.001 Q 52.65 21.751 52.7 21.551 L 50 21.551 Q 50.05 21.351 50.05 21.176 Q 50.05 21.001 50.1 20.801 L 52.2 20.801 L 52.2 20.551 L 52.3 20.551 Q 52.35 20.451 52.35 20.301 Q 52.35 20.151 52.4 20.051 L 52.55 20.051 L 52.7 19.301 L 51.6 19.301 L 51.7 19.051 L 51.55 19.051 Q 51.6 18.851 51.65 18.676 Q 51.7 18.501 51.75 18.301 L 52.05 18.301 Q 52.15 18.051 52.225 17.776 Q 52.3 17.501 52.4 17.301 L 52.3 17.301 L 52.4 17.051 Q 52.5 16.801 52.625 16.526 Q 52.75 16.251 52.9 16.051 L 53.35 15.301 L 52.85 15.301 L 53.2 14.801 L 52.55 14.801 Q 52.75 14.601 52.95 14.301 L 54.7 14.301 Q 54.8 14.201 54.925 14.051 Q 55.05 13.901 55.2 13.801 L 53.45 13.801 Q 53.8 13.451 54 13.301 L 55.55 13.301 Q 56.1 12.851 56.6 12.551 L 56.05 12.551 Q 57.05 11.951 58.2 11.551 L 57.45 11.551 Q 59.25 11.001 61.1 11.001 Q 63 11.001 64.65 11.551 L 65.4 11.551 Q 66.5 11.901 67.45 12.551 L 70.1 12.551 L 70.1 11.551 L 69 11.551 L 69 10.551 L 70.5 10.551 L 70.5 9.801 L 70.45 9.801 L 70.45 8.801 L 68.25 8.801 L 68.25 8.301 L 68.7 8.301 L 68.7 7.801 L 69.05 7.801 L 69.05 7.551 L 68.75 7.551 L 68.75 7.301 L 68.6 7.301 L 68.6 7.051 L 68.55 7.051 L 68.55 6.801 L 68.4 6.801 L 68.4 6.551 L 68.3 6.551 L 68.3 5.551 L 67.25 5.551 L 67.25 4.551 L 68.4 4.551 L 68.4 4.301 L 68.55 4.301 L 68.55 3.301 Q 68.55 3.101 68.65 2.801 L 69.15 2.801 Q 69.5 2.001 70.4 2.001 L 79.65 2.001 Q 80.55 2.001 80.9 2.801 L 80.35 2.801 Q 80.5 3.001 80.5 3.351 L 80.5 4.301 L 80.35 4.301 L 80.35 4.551 L 79.2 4.551 L 79.2 5.551 L 80.25 5.551 L 80.25 6.551 L 80.35 6.551 L 80.35 6.801 L 80.5 6.801 L 80.5 7.051 L 80.55 7.051 L 80.55 7.301 L 80.7 7.301 L 80.7 7.551 L 81 7.551 L 81 7.801 L 80.65 7.801 L 80.65 8.301 L 80.2 8.301 L 80.2 8.801 L 82.4 8.801 L 82.4 9.801 L 82.45 9.801 L 82.45 10.551 L 80.95 10.551 L 80.95 11.551 L 82.05 11.551 L 82.05 12.551 L 79.65 12.551 L 79.65 13.301 L 79.4 13.301 L 79.4 13.801 L 81.15 13.801 L 81.15 14.301 L 79.4 14.301 L 79.4 14.801 L 80 14.801 L 80 15.301 L 80.55 15.301 L 80.55 16.051 L 80.5 16.051 L 80.5 17.301 L 80.6 17.301 L 80.6 18.301 L 80.3 18.301 L 80.3 19.051 L 80.4 19.051 L 80.4 19.301 L 81.5 19.301 L 81.5 20.051 L 82.7 20.051 L 82.7 20.551 L 81.3 20.551 L 81.3 20.801 L 80.4 20.801 L 80.4 21.551 L 81.35 21.551 L 81.35 22.551 L 78.3 22.551 L 78.3 23.551 L 78.65 23.551 L 78.65 23.801 L 80.15 23.801 L 80.15 24.051 L 80.6 24.051 L 80.6 24.801 L 80.1 24.801 L 80.1 25.551 L 80.8 25.551 L 80.8 26.301 L 80.85 26.301 L 80.85 26.551 L 80.3 26.551 L 80.3 27.301 L 80.7 27.301 L 80.7 28.051 L 84.95 28.051 L 84.95 28.551 L 80 28.551 L 80 29.551 L 78 29.551 L 78 30.051 L 78.15 30.051 L 78.15 30.551 L 84.4 30.551 L 84.4 30.801 L 84.5 30.801 L 84.35 30.051 L 85.6 30.051 Q 85.55 29.951 85.55 29.801 L 85.1 29.801 Q 85.1 29.651 85.05 29.551 L 84.05 29.551 Q 84 29.451 84 29.301 Q 84 29.151 83.95 29.051 L 86.6 29.051 Q 86.55 28.851 86.55 28.676 Q 86.55 28.501 86.5 28.301 L 85.9 28.301 Q 85.85 28.101 85.85 27.926 L 85.85 27.551 L 85 27.551 L 85 26.551 L 84.7 26.551 L 84.7 25.801 L 84.55 25.801 L 84.55 25.301 L 84.65 25.301 L 84.65 23.301 L 84.45 23.301 L 84.45 22.801 L 84 22.801 L 84 22.051 L 84.55 22.051 L 84.55 21.551 L 84.9 21.551 L 84.9 21.051 L 84.95 21.051 L 84.95 20.051 L 84.75 20.051 L 84.75 19.801 L 84.9 19.801 L 84.9 18.801 L 85.85 18.801 L 85.85 18.301 L 84.95 18.301 L 84.95 17.551 L 84.65 17.551 L 84.65 16.801 L 84.5 16.801 L 84.5 15.801 L 85.75 15.801 L 85.75 15.301 L 86.65 15.301 L 86.65 14.801 L 86.15 14.801 L 86.15 14.301 L 85.05 14.301 L 85.05 14.051 L 84.75 14.051 L 84.75 13.551 L 84.7 13.551 L 84.7 12.851 Q 84.7 12.751 84.725 12.676 Q 84.75 12.601 84.75 12.551 L 84.7 12.551 Q 84.9 11.501 86 11.501 L 95.55 11.501 Q 96.7 11.501 96.85 12.551 L 96.95 12.551 L 96.95 13.551 L 97 13.551 L 97 14.051 L 97.3 14.051 L 97.3 14.301 L 98.4 14.301 L 98.4 14.801 L 98.9 14.801 L 98.9 15.301 L 98 15.301 L 98 15.801 L 96.75 15.801 L 96.75 16.801 L 96.9 16.801 L 96.9 17.551 L 97.2 17.551 L 97.2 18.301 L 98.1 18.301 L 98.1 18.801 L 97.15 18.801 L 97.15 19.801 L 97 19.801 L 97 20.051 L 97.2 20.051 L 97.2 21.051 L 97.15 21.051 L 97.15 21.551 L 96.8 21.551 L 96.8 22.051 L 96.25 22.051 L 96.25 22.801 L 96.7 22.801 L 96.7 23.301 L 96.9 23.301 L 96.9 25.301 L 96.8 25.301 L 96.8 25.801 L 96.95 25.801 L 96.95 26.301 Q 96.95 26.451 97 26.551 L 97.25 26.551 Q 97.25 27.101 97.4 27.551 L 98.25 27.551 Q 98.4 27.951 98.65 28.301 L 99.3 28.301 Q 99.55 28.601 99.9 28.751 Q 100.25 28.601 100.45 28.301 L 102.85 28.301 Q 103.1 27.951 103.25 27.551 L 101.75 27.551 Q 101.9 27.101 101.9 26.551 L 102 26.551 L 102 25.801 L 102.05 25.801 L 102.05 24.301 L 101.9 24.301 L 101.9 23.301 L 101.65 23.301 L 101.65 22.801 L 100.85 22.801 L 100.85 22.051 L 99.65 22.051 L 99.65 21.551 L 101.25 21.551 L 101.25 21.051 L 102.05 21.051 L 102.05 20.051 L 101.85 20.051 L 101.85 19.801 L 102 19.801 L 102 18.801 L 102.6 18.801 L 102.6 18.301 L 101.5 18.301 L 101.5 17.551 L 101.3 17.551 L 101.3 16.801 L 102.15 16.801 L 102.15 15.801 L 103.2 15.801 L 103.2 15.301 L 104.5 15.301 L 104.5 14.801 L 102.85 14.801 L 102.85 14.301 L 102 14.301 L 102 14.051 L 101.8 14.051 L 101.8 13.551 L 102 13.551 L 102 12.851 Q 102 12.651 102.05 12.551 L 101.7 12.551 Q 101.95 11.501 103.05 11.501 L 112.55 11.501 Q 113.6 11.501 113.85 12.551 L 114.15 12.551 Q 114.2 12.651 114.2 12.851 L 114.2 13.551 L 114 13.551 L 114 14.051 L 114.2 14.051 L 114.2 14.301 L 115.05 14.301 L 115.05 14.801 L 116.7 14.801 L 116.7 15.301 L 115.4 15.301 L 115.4 15.801 L 114.35 15.801 L 114.35 16.801 L 113.5 16.801 L 113.5 17.551 L 113.7 17.551 L 113.7 18.301 L 114.8 18.301 L 114.8 18.801 L 114.2 18.801 L 114.2 19.801 L 114.05 19.801 L 114.05 20.051 L 114.25 20.051 L 114.25 21.051 L 113.45 21.051 L 113.45 21.551 L 111.85 21.551 L 111.85 22.051 L 113.05 22.051 L 113.05 22.801 L 113.85 22.801 L 113.85 23.301 L 114.1 23.301 L 114.1 24.301 L 114.25 24.301 L 114.25 25.801 L 114.2 25.801 L 114.2 26.551 L 114.1 26.551 L 114.1 27.551 L 115.538 27.551 L 115.5 27.301 L 118.25 27.301 L 118.25 26.801 L 115.25 26.801 L 115.25 26.551 Q 115.2 26.301 115.2 26.051 L 115.2 25.551 L 117.9 25.551 L 117.9 24.551 L 118.85 24.551 L 118.85 24.301 L 115.3 24.301 L 115.3 24.051 L 124.15 24.051 L 124.15 23.051 L 114.6 23.051 L 114.6 22.801 L 120.85 22.801 L 120.85 22.301 L 122.8 22.301 L 122.8 22.051 L 122.6 22.051 Q 122.65 21.951 122.65 21.801 L 122.65 21.551 L 121.05 21.551 L 121.05 21.301 L 119.7 21.301 Q 119.7 21.151 119.75 21.051 L 117.05 21.051 Q 117.15 20.751 117.15 20.551 L 117.65 20.551 L 117.8 19.801 L 118.85 19.801 L 119.15 18.801 L 119.25 18.801 Q 119.3 18.601 119.4 18.426 Q 119.5 18.251 119.55 18.051 L 119.3 18.051 Q 119.4 17.801 119.525 17.526 Q 119.65 17.251 119.8 17.051 L 119.5 17.051 Q 119.6 16.851 119.725 16.676 Q 119.85 16.501 120 16.301 L 120.05 16.301 Q 120.25 16.051 120.45 15.776 Q 120.65 15.501 120.85 15.301 L 120.9 15.301 Q 121.2 14.901 121.65 14.551 L 121.4 14.551 L 121.7 14.301 L 121.6 14.301 L 121.9 14.051 L 123.75 14.051 Q 123.85 13.951 123.95 13.901 Q 124.05 13.851 124.1 13.801 L 123 13.801 Q 123.1 13.701 123.2 13.651 Q 123.3 13.601 123.35 13.551 L 122.95 13.551 Q 123.85 12.951 124.7 12.551 L 125.7 12.551 Q 126 12.401 126.3 12.276 Q 126.6 12.151 126.9 12.051 L 125.75 12.051 Q 125.95 11.951 126.125 11.901 Q 126.3 11.851 126.5 11.801 L 126.45 11.801 Q 126.7 11.701 126.925 11.651 Q 127.15 11.601 127.35 11.551 L 127.2 11.551 Q 129.4 11.001 131.8 11.001 Q 133.15 11.001 134.35 11.151 Q 135.55 11.301 136.6 11.551 L 136.75 11.551 Q 137 11.601 137.225 11.651 Q 137.45 11.701 137.65 11.801 L 137.7 11.801 Q 137.9 11.851 138.075 11.901 Q 138.25 11.951 138.45 12.051 L 139.6 12.051 Q 140.35 12.301 140.85 12.551 L 139.8 12.551 Q 140.3 12.751 140.75 13.026 Q 141.2 13.301 141.65 13.551 L 142.05 13.551 L 142.25 13.651 Q 142.35 13.701 142.4 13.801 L 143.5 13.801 Q 143.6 13.851 143.675 13.901 Q 143.75 13.951 143.85 14.051 L 142 14.051 L 142.3 14.301 L 142.4 14.301 L 142.7 14.551 L 142.9 14.551 Q 143.15 14.751 143.35 14.926 Q 143.55 15.101 143.75 15.301 L 143.7 15.301 Q 143.95 15.551 144.175 15.801 Q 144.4 16.051 144.6 16.301 L 144.55 16.301 Q 144.7 16.501 144.85 16.676 Q 145 16.851 145.1 17.051 L 145.4 17.051 Q 145.6 17.301 145.75 17.551 Q 145.9 17.801 146 18.051 L 146.3 18.051 Q 146.4 18.251 146.5 18.426 Q 146.6 18.601 146.65 18.801 L 146.6 18.801 L 146.8 19.301 Q 146.9 19.551 146.95 19.801 L 145.7 19.801 L 145.85 20.551 L 146.7 20.551 L 146.7 21.051 L 146.6 21.301 L 147.8 21.301 L 149.7 21.301 Q 149.7 21.101 149.8 20.801 L 148.15 20.801 Q 148.15 20.701 148.175 20.651 Q 148.2 20.601 148.2 20.551 L 149.4 20.551 Q 149.4 20.451 149.425 20.401 Q 149.45 20.351 149.45 20.301 L 148.2 20.301 L 148.3 20.051 L 149.5 20.051 L 149.65 19.551 L 150.6 19.551 L 150.9 18.801 L 150 18.801 Q 150.1 18.551 150.2 18.276 Q 150.3 18.001 150.45 17.801 L 150.3 17.801 L 150.4 17.551 L 149.15 17.551 Q 149.25 17.351 149.25 17.301 L 148.1 17.301 L 148.4 16.801 L 150.85 16.801 Q 150.9 16.701 151.05 16.551 L 151.95 16.551 Q 152.15 16.301 152.325 16.026 Q 152.5 15.751 152.7 15.551 L 151.8 15.551 Q 151.95 15.351 152.125 15.176 L 152.5 14.801 L 154.45 14.801 L 154.95 14.301 L 152 14.301 Q 152.65 13.751 153.3 13.301 L 156.05 13.301 L 156.45 13.051 L 155.55 13.051 Q 155.95 12.801 156.5 12.551 L 158.45 12.551 Q 159.8 11.901 161.25 11.551 L 158.45 11.551 Q 159.55 11.301 160.75 11.151 Q 161.95 11.001 163.25 11.001 Q 164.55 11.001 165.7 11.151 Q 166.85 11.301 167.9 11.551 L 170.65 11.551 Q 171.4 11.751 172.075 12.001 Q 172.75 12.251 173.4 12.551 L 171.45 12.551 Q 171.7 12.651 171.925 12.776 Q 172.15 12.901 172.35 13.051 L 173.25 13.051 L 173.45 13.151 Q 173.55 13.201 173.65 13.301 L 170.9 13.301 Q 171.55 13.751 172.2 14.301 L 175.2 14.301 L 175.7 14.801 L 173.75 14.801 L 174.125 15.176 Q 174.3 15.351 174.45 15.551 L 175.35 15.551 Q 175.55 15.751 175.725 16.026 Q 175.9 16.301 176.1 16.551 L 175.15 16.551 Q 175.2 16.651 175.35 16.801 L 172.85 16.801 L 173.15 17.301 L 174.3 17.301 L 174.45 17.551 L 175.75 17.551 Q 175.75 17.601 175.85 17.801 L 176 17.801 L 176.45 18.801 L 176.75 19.551 L 176.8 19.551 L 176.95 20.051 L 176.35 20.051 L 176.45 20.301 L 176.9 20.301 L 177 20.551 L 177.8 20.551 Q 177.8 20.601 177.825 20.651 Q 177.85 20.701 177.85 20.801 L 177.45 20.801 L 177.6 21.301 L 175.7 21.301 L 175.85 22.301 L 181.65 22.301 L 181.65 22.001 Q 181.65 21.751 181.7 21.551 L 179 21.551 Q 179.05 21.351 179.05 21.176 Q 179.05 21.001 179.1 20.801 L 181.2 20.801 L 181.2 20.551 L 181.3 20.551 Q 181.35 20.451 181.35 20.301 Q 181.35 20.151 181.4 20.051 L 181.55 20.051 L 181.7 19.301 L 180.6 19.301 L 180.7 19.051 L 180.55 19.051 Q 180.6 18.851 180.65 18.676 Q 180.7 18.501 180.75 18.301 L 181.05 18.301 Q 181.15 18.051 181.225 17.776 Q 181.3 17.501 181.4 17.301 L 181.3 17.301 L 181.4 17.051 Q 181.5 16.801 181.625 16.526 Q 181.75 16.251 181.9 16.051 L 182.35 15.301 L 181.85 15.301 L 182.2 14.801 L 181.55 14.801 Q 181.75 14.601 181.95 14.301 L 183.7 14.301 Q 183.8 14.201 183.925 14.051 Q 184.05 13.901 184.2 13.801 L 182.45 13.801 Q 182.8 13.451 183 13.301 L 184.55 13.301 Q 185.1 12.851 185.6 12.551 L 185.05 12.551 Q 186.05 11.951 187.2 11.551 L 186.45 11.551 Q 188.25 11.001 190.1 11.001 Q 192 11.001 193.65 11.551 L 194.4 11.551 Q 195.5 11.901 196.45 12.551 L 199.1 12.551 L 199.1 11.551 L 198 11.551 L 198 10.551 L 199.5 10.551 L 199.5 9.801 L 199.45 9.801 L 199.45 8.801 L 197.25 8.801 L 197.25 8.301 L 197.7 8.301 L 197.7 7.801 L 198.05 7.801 L 198.05 7.551 L 197.75 7.551 L 197.75 7.301 L 197.6 7.301 L 197.6 7.051 L 197.55 7.051 L 197.55 6.801 L 197.4 6.801 L 197.4 6.551 L 197.3 6.551 L 197.3 5.551 L 196.25 5.551 L 196.25 4.551 L 197.4 4.551 L 197.4 4.301 L 197.55 4.301 L 197.55 3.301 Q 197.55 3.101 197.65 2.801 L 198.15 2.801 Q 198.5 2.001 199.4 2.001 L 208.65 2.001 Q 209.55 2.001 209.9 2.801 L 209.35 2.801 Q 209.5 3.001 209.5 3.351 L 209.5 4.301 L 209.35 4.301 L 209.35 4.551 L 208.2 4.551 L 208.2 5.551 L 209.25 5.551 L 209.25 6.551 L 209.35 6.551 L 209.35 6.801 L 209.5 6.801 L 209.5 7.051 L 209.55 7.051 L 209.55 7.301 L 209.7 7.301 L 209.7 7.551 L 210 7.551 L 210 7.801 L 209.65 7.801 L 209.65 8.301 L 209.2 8.301 L 209.2 8.801 L 211.4 8.801 L 211.4 9.801 L 211.45 9.801 L 211.45 10.551 L 209.95 10.551 L 209.95 11.551 L 211.05 11.551 L 211.05 12.551 L 208.65 12.551 L 208.65 13.301 L 208.4 13.301 L 208.4 13.801 L 210.15 13.801 L 210.15 14.301 L 208.4 14.301 L 208.4 14.801 L 209 14.801 L 209 15.301 L 209.55 15.301 L 209.55 16.051 L 209.5 16.051 L 209.5 17.301 L 209.6 17.301 L 209.6 18.301 L 209.3 18.301 L 209.3 19.051 L 209.4 19.051 L 209.4 19.301 L 210.5 19.301 L 210.5 20.051 L 211.7 20.051 L 211.7 20.551 L 210.3 20.551 L 210.3 20.801 L 209.4 20.801 L 209.4 21.551 L 210.35 21.551 L 210.35 22.551 L 207.3 22.551 L 207.3 23.551 L 207.65 23.551 L 207.65 23.801 L 209.15 23.801 L 209.15 24.051 L 209.6 24.051 L 209.6 24.801 L 209.1 24.801 L 209.1 25.551 L 209.8 25.551 L 209.8 26.301 L 209.85 26.301 L 209.85 26.551 L 209.3 26.551 L 209.3 27.301 L 209.7 27.301 L 209.7 28.051 L 213.95 28.051 L 213.95 28.551 L 209 28.551 L 209 29.551 L 207 29.551 L 207 30.051 L 207.15 30.051 L 207.15 30.551 L 212.65 30.551 L 212.65 30.301 L 213.85 30.301 L 213.85 30.051 L 214.4 30.051 L 214.4 29.051 L 214.55 29.051 L 214.55 28.801 L 214.9 28.801 L 214.9 27.801 L 216.15 27.801 L 216.15 27.551 L 213.95 27.551 L 213.95 27.451 Q 213.95 27.001 214.3 26.551 L 215.95 26.551 Q 216.35 26.101 216.95 26.101 L 225.65 26.101 Q 226.3 26.101 226.65 26.551 L 225.05 26.551 Q 225.35 26.901 225.35 27.451 L 225.35 27.551 L 227.55 27.551 L 227.55 27.801 L 226.3 27.801 L 226.3 28.801 L 225.95 28.801 L 225.95 29.051 L 225.8 29.051 L 225.8 30.051 L 225.25 30.051 L 225.25 30.301 L 224.05 30.301 L 224.05 31.051 L 224.6 31.051 L 224.6 31.551 L 220.5 31.551 L 220.5 31.801 L 225.2 31.801 L 225.2 32.051 L 219.45 32.051 L 219.45 32.801 L 218.75 32.801 L 218.75 33.051 L 227.95 33.051 L 227.95 33.801 L 220.85 33.801 L 220.85 34.551 L 221.75 34.551 L 221.75 35.551 L 228.2 35.551 L 228.2 36.301 L 221.2 36.301 Q 221.1 37.001 220.55 37.301 L 223.45 37.301 Q 223.2 37.501 222.75 37.501 L 214.05 37.501 Q 213.55 37.501 213.3 37.301 L 210.45 37.301 Q 209.9 37.001 209.8 36.301 L 216.8 36.301 L 216.8 35.551 L 210.35 35.551 L 210.35 34.551 L 209.5 34.551 L 209.45 34.551 L 207.75 34.551 L 207.75 35.051 L 209.35 35.051 L 209.35 35.551 L 207.9 35.551 L 207.9 36.151 Q 207.9 36.251 207.875 36.351 Q 207.85 36.451 207.85 36.551 L 209.05 36.551 Q 209.05 36.601 208.95 36.801 L 209.35 36.801 Q 209 37.501 208.2 37.501 L 199.7 37.501 Q 198.95 37.501 198.5 36.801 L 198.1 36.801 L 197.95 36.551 L 196.75 36.551 L 196.3 36.551 L 196.7 36.301 Q 196.7 36.451 196.75 36.551 L 196.35 36.801 L 197.9 36.801 Q 197.1 37.251 196.1 37.551 L 195.85 37.551 Q 195.6 37.601 195.325 37.676 Q 195.05 37.751 194.8 37.801 L 194.55 37.801 Q 194 37.901 193.425 37.951 Q 192.85 38.001 192.25 38.001 Q 191.6 38.001 191 37.951 Q 190.4 37.901 189.85 37.801 L 190.1 37.801 Q 189.85 37.751 189.55 37.676 Q 189.25 37.601 189 37.551 L 189.25 37.551 Q 188.2 37.251 187.35 36.801 L 185.8 36.801 L 185.35 36.551 L 184.9 36.551 Q 184.55 36.301 184.225 36.076 Q 183.9 35.851 183.6 35.551 L 185.1 35.551 L 184.6 35.051 L 181.5 35.051 L 181.05 34.551 L 182.85 34.551 Q 182.45 34.051 182.15 33.551 L 182.55 33.551 L 182.4 33.301 L 185.3 33.301 Q 185.2 33.051 185.05 32.801 L 179.75 32.801 L 179.45 32.051 L 182.8 32.051 L 182.65 31.551 L 185.1 31.551 L 184.8 30.551 L 178.55 30.551 L 178.4 30.051 L 178.3 30.051 Q 178.2 29.751 178.2 29.551 L 180.15 29.551 L 180.05 29.051 L 179.95 28.551 L 182.95 28.551 Q 182.9 28.451 182.9 28.301 L 182.9 28.051 L 181.35 28.051 Q 181.35 27.851 181.325 27.676 Q 181.3 27.501 181.3 27.301 L 180.3 27.301 L 180.3 26.926 Q 180.3 26.751 180.25 26.551 L 180.15 26.551 L 180.15 26.301 Q 180.15 26.101 180.125 25.926 Q 180.1 25.751 180.1 25.551 L 179.35 25.551 Q 179.3 25.351 179.3 25.176 L 179.3 24.801 L 177.75 24.801 L 177.75 25.301 L 175.95 25.301 L 175.95 25.801 L 177.5 25.801 L 177.5 26.101 Q 177.5 26.401 177.45 26.551 L 178.15 26.551 Q 177.8 27.451 176.85 27.451 L 161.95 27.451 L 161.95 27.551 L 163.95 27.551 L 163.95 27.701 L 163.95 28.126 Q 163.95 28.351 164 28.551 L 161.3 28.551 Q 161.3 28.701 161.325 28.826 Q 161.35 28.951 161.35 29.051 L 161.05 29.051 Q 161.05 29.251 161.15 29.551 L 161.35 29.551 Q 161.6 30.251 162.15 30.551 L 160.8 30.551 Q 161.15 30.751 161.75 30.751 Q 162.15 30.751 162.4 30.551 L 164.75 30.551 Q 164.95 30.451 165.125 30.251 Q 165.3 30.051 165.55 29.851 L 165.85 29.551 L 164.9 29.551 Q 165.35 29.151 166.25 29.151 L 175.7 29.151 Q 176.3 29.151 176.6 29.551 L 177.5 29.551 Q 177.75 29.901 177.75 30.251 Q 177.7 30.351 177.7 30.551 L 175.35 30.551 Q 175.25 31.051 175.05 31.551 L 172.6 31.551 Q 172.45 31.801 172.35 32.051 L 178.55 32.051 Q 178.45 32.301 178.275 32.551 Q 178.1 32.801 177.9 33.051 L 176.4 33.051 Q 176.2 33.351 176 33.551 L 176.35 33.551 L 176.25 33.651 Q 176.2 33.701 176.15 33.801 L 173.35 33.801 L 173.1 34.051 L 173.95 34.051 Q 173.9 34.101 173.825 34.151 Q 173.75 34.201 173.7 34.301 L 175.25 34.301 Q 174.9 34.651 174.35 35.051 L 173.6 35.051 Q 173.55 35.101 173.45 35.151 Q 173.35 35.201 173.25 35.301 L 172.7 35.301 Q 171.9 35.851 170.95 36.301 L 170.3 36.301 Q 169.7 36.601 169.025 36.851 Q 168.35 37.101 167.6 37.301 L 166.8 37.301 Q 166.25 37.451 165.65 37.576 Q 165.05 37.701 164.35 37.801 L 166.45 37.801 Q 165.75 37.901 165 37.951 Q 164.25 38.001 163.4 38.001 Q 162.6 38.001 161.8 37.951 Q 161 37.901 160.25 37.801 L 158.15 37.801 Q 157.5 37.701 156.9 37.576 Q 156.3 37.451 155.7 37.301 L 156.5 37.301 Q 155.15 36.951 153.95 36.301 L 154.6 36.301 Q 153.7 35.801 153.05 35.301 L 153.6 35.301 Q 153.5 35.201 153.425 35.151 Q 153.35 35.101 153.25 35.051 L 154 35.051 Q 153.8 34.851 153.6 34.676 Q 153.4 34.501 153.2 34.301 L 151.6 34.301 L 151.35 34.051 L 150.5 34.051 Q 150.45 33.951 150.4 33.901 L 150.3 33.801 L 153.05 33.801 Q 153 33.701 152.85 33.551 L 152.5 33.551 Q 152.4 33.451 152.3 33.301 Q 152.2 33.151 152.1 33.051 L 153.6 33.051 L 153.3 32.551 L 153 32.051 L 146.75 32.051 A 3.498 3.498 0 0 1 146.613 31.801 L 143.2 31.801 Q 143.05 32.051 142.875 32.301 Q 142.7 32.551 142.5 32.801 L 141.6 32.801 L 141.5 32.901 Q 141.45 32.951 141.4 33.051 L 144.85 33.051 L 144.75 33.151 Q 144.7 33.201 144.65 33.301 L 142.15 33.301 L 142.05 33.401 L 141.9 33.551 L 144 33.551 L 143.5 34.051 L 143.25 34.051 L 143 34.301 L 143.6 34.301 L 143 34.801 L 143.9 34.801 Q 143.65 35.001 143.375 35.176 Q 143.1 35.351 142.8 35.551 L 143.8 35.551 L 143.4 35.801 L 142.3 35.801 L 141.4 36.301 L 141.7 36.301 Q 140.9 36.751 139.9 37.051 L 139.05 37.051 Q 138.6 37.201 138.15 37.326 Q 137.7 37.451 137.25 37.551 L 136.8 37.551 Q 136.45 37.601 136.1 37.676 Q 135.75 37.751 135.4 37.801 L 136.4 37.801 Q 135.7 37.901 134.95 37.951 Q 134.2 38.001 133.4 38.001 Q 132.65 38.001 131.95 37.951 Q 131.25 37.901 130.55 37.801 L 129.5 37.801 Q 129.15 37.751 128.825 37.676 Q 128.5 37.601 128.15 37.551 L 128.6 37.551 Q 128.15 37.451 127.7 37.326 Q 127.25 37.201 126.85 37.051 L 127.7 37.051 Q 126.75 36.751 125.95 36.301 L 125.6 36.301 Q 125.4 36.201 125.175 36.076 Q 124.95 35.951 124.75 35.801 L 125.8 35.801 L 125.4 35.551 L 124.4 35.551 L 123.4 34.801 L 122.55 34.801 Q 122.4 34.701 122.25 34.551 L 122 34.301 L 121.35 34.301 L 121.1 34.051 L 121.35 34.051 L 120.85 33.551 L 118.8 33.551 Q 118.65 33.401 118.6 33.301 L 121.1 33.301 Q 120.95 33.151 120.9 33.051 L 117.4 33.051 Q 117.35 32.951 117.2 32.801 L 118.1 32.801 Q 117.9 32.551 117.75 32.301 L 117.45 31.801 L 121.2 31.801 L 121.05 31.551 L 120.55 31.551 Q 120.4 31.301 120.275 31.051 Q 120.15 30.801 120.05 30.551 L 114.05 30.551 L 113.95 30.301 L 119.5 30.301 L 119.4 30.051 L 120.45 30.051 L 120.35 29.801 L 117.15 29.801 L 117 29.301 L 115.35 29.301 L 115.25 28.801 L 115.15 28.301 L 113.25 28.301 L 113.25 29.551 L 114.3 29.551 L 114.3 29.801 L 114.7 29.801 L 114.7 30.051 L 113.45 30.051 L 113.45 30.801 L 113.1 30.801 L 113.1 31.801 L 114.3 31.801 L 114.3 32.801 L 113.95 32.801 L 113.95 33.551 L 114.3 33.551 L 114.3 34.051 L 114.2 34.051 L 114.2 35.051 L 114.15 35.051 L 114.15 36.051 L 114.25 36.051 L 114.25 36.301 L 114.2 36.301 Q 114.1 36.801 113.85 37.051 L 114.7 37.051 Q 114.4 37.501 113.7 37.501 L 104.95 37.501 Q 104.35 37.501 103.95 37.051 L 103.1 37.051 Q 102.85 36.801 102.75 36.301 L 102.8 36.301 L 102.8 36.051 L 102.7 36.051 L 102.7 35.051 L 102.75 35.051 L 102.75 34.501 Q 102.6 34.801 102.35 35.051 L 102.45 35.051 Q 101.95 35.651 101.4 36.051 L 101.3 36.051 Q 101.25 36.101 101.15 36.151 Q 101.05 36.201 100.95 36.301 L 100.85 36.301 Q 100.2 36.751 99.5 37.051 L 100.35 37.051 Q 99.15 37.601 97.75 37.801 L 97.1 37.801 Q 96.5 37.901 95.875 37.951 Q 95.25 38.001 94.55 38.001 Q 94.05 38.001 93.55 37.951 Q 93.05 37.901 92.5 37.801 L 93.15 37.801 Q 91.95 37.551 90.9 37.051 L 90.05 37.051 Q 89.3 36.701 88.75 36.301 L 88.9 36.301 Q 88.85 36.201 88.75 36.151 L 88.55 36.051 L 88.65 36.051 Q 88.4 35.801 88.125 35.551 Q 87.85 35.301 87.6 35.051 L 87.5 35.051 L 87.1 34.551 L 86.7 34.051 L 86.8 34.051 Q 86.75 33.951 86.65 33.801 Q 86.55 33.651 86.45 33.551 L 86.1 33.551 Q 86.05 33.351 85.925 33.176 Q 85.8 33.001 85.7 32.801 L 86.1 32.801 Q 85.85 32.251 85.7 31.801 L 84.5 31.801 A 2.85 2.85 0 0 0 84.4 31.434 L 84.4 31.551 L 81.95 31.551 L 81.95 32.051 L 78.55 32.051 L 78.55 32.801 L 83.85 32.801 L 83.85 33.301 L 80.9 33.301 L 80.9 33.551 L 80.5 33.551 L 80.5 34.551 L 78.75 34.551 L 78.75 35.051 L 80.35 35.051 L 80.35 35.551 L 78.9 35.551 L 78.9 36.151 Q 78.9 36.251 78.875 36.351 Q 78.85 36.451 78.85 36.551 L 80.05 36.551 Q 80.05 36.601 79.95 36.801 L 80.35 36.801 Q 80 37.501 79.2 37.501 L 70.7 37.501 Q 69.95 37.501 69.5 36.801 L 69.1 36.801 L 68.95 36.551 L 67.75 36.551 L 67.3 36.551 L 67.7 36.301 Q 67.7 36.451 67.75 36.551 L 67.35 36.801 L 68.9 36.801 Q 68.1 37.251 67.1 37.551 L 66.85 37.551 Q 66.6 37.601 66.325 37.676 Q 66.05 37.751 65.8 37.801 L 65.55 37.801 Q 65 37.901 64.425 37.951 Q 63.85 38.001 63.25 38.001 Q 62.6 38.001 62 37.951 Q 61.4 37.901 60.85 37.801 L 61.1 37.801 Q 60.85 37.751 60.55 37.676 Q 60.25 37.601 60 37.551 L 60.25 37.551 Q 59.2 37.251 58.35 36.801 L 56.8 36.801 L 56.35 36.551 L 55.9 36.551 Q 55.55 36.301 55.225 36.076 Q 54.9 35.851 54.6 35.551 L 56.1 35.551 L 55.6 35.051 L 52.5 35.051 L 52.275 34.801 L 50.7 34.801 L 50.7 35.551 L 50 35.551 L 50 36.051 L 46.9 36.051 L 46.9 36.301 L 48.45 36.301 Q 48.35 37.001 47.85 37.301 L 46.75 37.301 Q 46.5 37.501 46 37.501 L 36.45 37.501 Q 36 37.501 35.75 37.301 L 36.85 37.301 Q 36.35 37.001 36.25 36.301 L 34.65 36.301 L 34.65 36.051 L 37.75 36.051 L 37.75 35.551 L 38.45 35.551 L 38.45 34.801 L 42.7 34.801 L 42.7 33.801 L 35.25 33.801 L 35.25 32.801 L 37.1 32.801 L 37.1 32.551 L 35.45 32.551 L 35.45 32.051 L 35.5 32.051 L 35.5 31.551 L 34.7 31.551 L 34.7 30.551 L 35.35 30.551 L 35.35 29.551 L 33.3 29.551 L 33.3 28.551 L 33.8 28.551 L 33.8 27.551 L 36.1 27.551 L 36.1 26.551 L 35.55 26.551 L 35.55 26.051 L 35.35 26.051 L 35.35 25.801 L 35.15 25.801 L 35.15 25.051 L 35.45 25.051 L 35.45 24.801 L 35.7 24.801 L 35.7 24.301 L 35.65 24.301 L 35.65 23.801 L 35.5 23.801 L 35.5 23.301 L 33.4 23.301 L 33.4 22.801 L 33.95 22.801 L 33.95 22.701 Q 33.95 22.501 33.925 22.351 Q 33.9 22.201 33.9 22.051 L 34.9 22.051 Q 34.85 21.801 34.8 21.626 Q 34.75 21.451 34.7 21.301 L 35.6 21.301 Q 35.3 20.651 34.75 20.301 L 33.15 20.301 Q 32.6 19.951 31.7 19.951 Q 30.8 19.951 30.3 20.301 L 31.5 20.301 Q 31.25 20.501 31.025 20.726 Q 30.8 20.951 30.7 21.301 L 29.2 21.301 Q 29.1 21.501 29 22.051 L 29.25 22.051 Q 29.2 22.251 29.2 22.701 L 29.2 22.801 L 28.85 22.801 L 28.85 23.301 L 30.5 23.301 L 30.5 23.801 L 30.6 23.801 L 30.6 24.301 L 30.45 24.301 L 30.45 24.801 L 30.1 24.801 L 30.1 25.051 L 29.75 25.051 L 29.75 25.801 L 30.3 25.801 L 30.3 26.051 L 30.65 26.051 L 30.65 26.551 L 30.45 26.551 L 30.45 27.551 L 31.75 27.551 L 31.75 28.551 L 30.35 28.551 L 30.35 29.551 L 30.6 29.551 L 30.6 30.551 L 30.05 30.551 L 30.05 31.551 L 30.65 31.551 L 30.65 32.051 L 30.6 32.051 L 30.6 32.301 L 30.75 32.301 L 30.75 32.551 L 33.5 32.551 L 33.5 32.801 L 34.65 32.801 L 34.65 33.801 L 31.55 33.801 L 31.55 34.801 L 31.65 34.801 L 31.65 35.551 L 29.75 35.551 L 29.75 36.051 L 31.9 36.051 L 31.9 36.301 L 32.45 36.301 Q 32.35 37.001 31.8 37.301 L 29.5 37.301 Q 29.25 37.501 28.8 37.501 L 19.3 37.501 Q 18.85 37.501 18.6 37.301 L 20.9 37.301 Q 20.35 37.001 20.25 36.301 L 19.7 36.301 L 19.7 36.051 L 17.55 36.051 L 17.55 35.551 L 19.45 35.551 L 19.45 34.801 L 19.35 34.801 L 19.35 33.801 L 22.45 33.801 L 22.45 32.801 L 21.3 32.801 L 21.3 32.551 L 18.55 32.551 L 18.55 32.301 L 18.4 32.301 L 18.4 32.051 L 18.45 32.051 L 18.45 31.551 L 17.85 31.551 L 17.85 30.551 L 18.4 30.551 L 18.4 29.551 L 18.15 29.551 L 18.15 28.551 L 19.55 28.551 L 19.55 27.551 L 18.25 27.551 L 18.25 26.551 L 18.45 26.551 L 18.45 26.051 L 18.1 26.051 L 18.1 25.801 L 17.55 25.801 L 17.55 25.051 L 17.9 25.051 L 17.9 24.801 L 18.25 24.801 L 18.25 24.301 L 18.4 24.301 L 18.4 23.801 L 18.3 23.801 L 18.3 23.301 L 16.65 23.301 L 16.65 22.801 L 17 22.801 L 17 22.051 L 16.75 22.051 L 16.75 21.301 L 18.25 21.301 L 18.25 20.301 L 17 20.301 L 17 19.551 L 18.1 19.551 L 18.1 19.051 L 18.4 19.051 L 18.4 18.301 L 18.2 18.301 L 18.2 17.551 L 18.25 17.551 L 18.25 16.301 L 18.5 16.301 L 18.5 15.801 L 18.45 15.801 L 18.45 15.051 L 19.1 15.051 L 19.1 14.801 L 18.7 14.801 L 18.7 14.051 L 19.3 14.051 L 19.3 13.801 L 17.3 13.801 L 17.3 13.301 L 18.75 13.301 L 18.75 12.551 L 21.45 12.551 Q 21.55 12.251 21.65 12.051 L 20.05 12.051 Q 20.45 11.501 21.15 11.501 L 29.9 11.501 Q 30.6 11.501 31 12.051 L 31.85 12.051 Q 32.95 11.551 34.2 11.276 Q 35.45 11.001 36.8 11.001 Q 39.3 11.001 41.3 12.051 L 41.85 12.051 Q 42.1 12.151 42.3 12.276 Q 42.5 12.401 42.7 12.551 L 42 12.551 Q 42.25 12.701 42.5 12.876 Q 42.75 13.051 42.95 13.301 L 46.85 13.301 Q 47.15 13.501 47.35 13.801 L 44.6 13.801 L 44.7 13.901 Q 44.75 13.951 44.8 14.051 L 45.5 14.051 Q 45.65 14.251 45.8 14.426 Q 45.95 14.601 46.05 14.801 L 46.5 14.801 L 46.65 15.051 L 46 15.051 L 46.45 15.801 L 46.5 15.801 Q 46.6 16.051 46.75 16.301 L 46.5 16.301 Q 46.75 16.851 46.9 17.301 Q 46.9 17.351 47 17.551 L 46.95 17.551 Q 47.05 17.751 47.075 17.926 Q 47.1 18.101 47.15 18.301 L 47.35 18.301 Q 47.45 18.501 47.475 18.676 Q 47.5 18.851 47.55 19.051 L 47.2 19.051 Q 47.3 19.351 47.3 19.551 L 46.25 19.551 Q 46.3 19.751 46.3 19.926 Q 46.3 20.101 46.35 20.301 L 47.95 20.301 Q 48 20.501 48.025 20.776 Q 48.05 21.051 48.05 21.301 L 47.15 21.301 L 47.15 22.051 L 46.2 22.051 L 46.2 22.801 L 45.65 22.801 L 45.65 23.301 L 47.75 23.301 L 47.75 23.801 L 47.9 23.801 L 47.9 24.301 L 47.95 24.301 L 47.95 24.801 L 47.7 24.801 L 47.7 25.051 L 47.4 25.051 L 47.4 25.801 L 47.6 25.801 L 47.6 26.051 L 47.8 26.051 L 47.8 26.551 L 48.35 26.551 L 48.35 27.551 L 46.05 27.551 L 46.05 28.551 L 45.55 28.551 L 45.55 29.551 L 47.6 29.551 L 47.6 30.551 L 46.95 30.551 L 46.95 31.551 L 47.75 31.551 L 47.75 32.051 L 47.7 32.051 L 47.7 32.551 L 49.35 32.551 L 49.35 32.801 L 47.5 32.801 Z M 147.6 22.051 A 1.332 1.332 0 0 0 147.65 22.052 L 147.6 22.301 L 154.65 22.301 L 154.65 22.551 L 150.95 22.551 Q 150.9 22.651 150.9 22.801 L 147.6 22.801 Q 147.6 22.851 147.575 22.901 Q 147.55 22.951 147.55 23.051 L 155.5 23.051 Q 155.5 23.251 155.475 23.426 Q 155.45 23.601 155.45 23.801 L 146.8 23.801 Q 146.75 23.951 146.75 24.201 L 146.75 24.301 L 153.1 24.301 L 153.1 24.801 L 149.25 24.801 L 149.25 25.301 L 147.5 25.301 L 147.5 25.801 L 149.05 25.801 Q 149.05 26.001 149.075 26.176 Q 149.1 26.351 149.1 26.551 L 149.8 26.551 L 149.9 27.551 L 151.9 27.551 L 152 28.051 L 152.1 28.551 L 149.4 28.551 L 149.55 29.051 L 149.2 29.051 L 149.35 29.551 L 149.5 29.551 Q 149.6 29.801 149.675 30.051 Q 149.75 30.301 149.85 30.551 L 148.5 30.551 L 148.95 31.551 L 147.1 31.551 L 146.6 31.551 L 147.15 30.551 L 141.1 30.551 L 141.25 30.301 L 146.8 30.301 L 146.9 30.051 L 147.95 30.051 L 148.05 29.801 L 144.85 29.801 L 145 29.301 L 145.75 29.301 Q 145.85 29.001 145.875 28.751 Q 145.9 28.501 145.95 28.301 L 144.6 28.301 Q 144.7 27.701 144.2 27.301 L 147.7 27.301 Q 147.25 26.951 146.75 26.951 L 137 26.951 Q 136.45 26.951 136 27.301 L 132.5 27.301 Q 132.4 27.401 132.275 27.576 Q 132.15 27.751 132.05 27.951 L 131.9 28.301 L 133.25 28.301 Q 132.85 29.051 132.4 29.301 L 131.7 29.301 Q 131.35 29.451 130.8 29.451 Q 130.35 29.451 129.95 29.301 L 128.3 29.301 Q 127.75 29.001 127.45 28.301 L 128 28.301 Q 127.9 27.951 127.8 27.301 L 130.55 27.301 Q 130.5 27.151 130.5 26.801 L 127.5 26.801 L 127.5 26.301 Q 127.45 26.101 127.45 25.926 L 127.45 25.551 L 130.15 25.551 L 130.15 24.551 L 131.1 24.551 L 131.1 24.301 L 127.55 24.301 L 127.55 24.051 L 136.4 24.051 L 136.4 23.551 Q 136.4 23.301 136.45 23.051 L 126.85 23.051 L 126.85 22.801 L 133.1 22.801 L 133.1 22.301 L 135.05 22.301 L 135.05 22.051 L 134.85 22.051 Q 134.9 21.951 134.9 21.801 Q 134.9 21.651 134.95 21.551 L 133.3 21.551 Q 133.3 21.401 133.35 21.301 L 132 21.301 Q 132 21.151 132.05 21.051 L 129.35 21.051 Q 129.45 20.751 129.55 20.551 L 130 20.551 Q 130.25 20.001 130.65 19.801 L 131.7 19.801 Q 132.1 19.551 132.7 19.551 Q 133.25 19.551 133.65 19.801 L 132.4 19.801 Q 132.75 20.001 133.05 20.551 L 133.9 20.551 Q 134.1 20.851 134.15 21.051 L 134.3 21.301 L 137.75 21.301 L 137.9 21.551 L 136.75 21.551 Q 137.15 22.051 137.85 22.051 L 147.6 22.051 Z M 12.15 17.301 L 12.15 17.801 L 16.85 17.801 L 16.85 18.801 L 15.15 18.801 L 15.15 19.301 L 13.25 19.301 L 13.25 20.301 L 14.7 20.301 L 14.7 20.551 L 13.75 20.551 L 13.75 21.051 L 13.9 21.051 L 13.9 21.551 L 14.15 21.551 L 14.15 22.301 L 11.65 22.301 L 11.65 23.051 L 13.3 23.051 L 13.3 23.801 L 13 23.801 L 13 24.301 L 13.85 24.301 L 13.85 25.051 L 14.05 25.051 L 14.05 25.801 L 13.75 25.801 L 13.75 26.551 L 14 26.551 L 14 27.051 L 13.75 27.051 L 13.75 28.051 L 13.65 28.051 L 13.65 28.801 L 13.45 28.801 L 13.45 29.551 L 13.65 29.551 L 13.65 30.051 L 13.75 30.051 L 13.75 31.051 L 13.55 31.051 L 13.55 31.551 L 13.8 31.551 L 13.8 32.051 L 13.75 32.051 L 13.75 32.801 L 13.95 32.801 L 13.95 33.551 L 14.1 33.551 L 14.1 33.801 L 13.75 33.801 L 13.75 34.801 L 13.05 34.801 L 13.05 35.801 L 13.55 35.801 L 13.55 36.151 Q 13.55 36.401 13.5 36.551 L 13.15 36.551 Q 13 37.051 12.6 37.301 L 13.6 37.301 Q 13.35 37.501 12.85 37.501 L 3.9 37.501 Q 3.45 37.501 3.2 37.301 L 2.2 37.301 Q 1.75 37.051 1.6 36.551 L 1.95 36.551 Q 1.9 36.401 1.9 36.151 L 1.9 35.801 L 1.4 35.801 L 1.4 34.801 L 2.1 34.801 L 2.1 33.801 L 2.45 33.801 L 2.45 33.551 L 2.3 33.551 L 2.3 32.801 L 2.1 32.801 L 2.1 32.051 L 2.15 32.051 L 2.15 31.551 L 1.9 31.551 L 1.9 31.051 L 2.1 31.051 L 2.1 30.051 L 2 30.051 L 2 29.551 L 1.8 29.551 L 1.8 28.801 L 2 28.801 L 2 28.051 L 2.1 28.051 L 2.1 27.051 L 2.35 27.051 L 2.35 26.551 L 2.1 26.551 L 2.1 25.801 L 2.4 25.801 L 2.4 25.051 L 2.2 25.051 L 2.2 24.301 L 1.35 24.301 L 1.35 23.801 L 1.65 23.801 L 1.65 23.051 L 0 23.051 L 0 22.301 L 2.5 22.301 L 2.5 21.551 L 2.25 21.551 L 2.25 21.051 L 2.1 21.051 L 2.1 20.551 L 3.05 20.551 L 3.05 20.301 L 1.6 20.301 L 1.6 19.301 L 3.5 19.301 L 3.5 18.801 L 5.2 18.801 L 5.2 17.801 L 0.5 17.801 L 0.5 17.301 L 4.65 17.301 L 4.65 16.301 L 3.15 16.301 L 3.15 15.551 L 4.05 15.551 L 4.05 14.551 L 2.45 14.551 L 2.45 14.301 L 2.1 14.301 L 2.1 13.801 L 1.8 13.801 L 1.8 13.051 L 2.15 13.051 L 2.15 12.851 Q 2.15 12.301 2.4 12.051 L 2.45 12.051 Q 2.85 11.501 3.55 11.501 L 12.5 11.501 Q 13.2 11.501 13.6 12.051 L 13.5 12.051 Q 13.8 12.351 13.8 12.851 L 13.8 13.051 L 13.45 13.051 L 13.45 13.801 L 13.75 13.801 L 13.75 14.301 L 14.1 14.301 L 14.1 14.551 L 15.7 14.551 L 15.7 15.551 L 14.8 15.551 L 14.8 16.301 L 16.3 16.301 L 16.3 17.301 L 12.15 17.301 Z M 194 28.051 Q 193.8 27.751 193.7 27.301 L 192.7 27.301 L 192.55 26.551 L 192.45 26.551 Q 192.45 26.401 192.4 26.301 L 192.4 26.151 Q 192.35 26.001 192.35 25.851 L 192.35 25.551 L 191.55 25.551 L 191.55 24.801 L 192.5 24.801 Q 192.45 24.401 192.5 24.051 L 192.5 23.801 L 192.7 23.801 L 192.7 23.551 L 192.8 23.551 Q 192.85 23.351 192.85 23.176 Q 192.85 23.001 192.9 22.851 L 192.9 22.551 L 193.9 22.551 Q 193.95 22.301 194 22.026 Q 194.05 21.751 194.1 21.551 L 191.45 21.551 Q 191.6 21.051 191.8 20.801 L 193.85 20.801 Q 194 20.651 194.05 20.551 L 194.15 20.551 Q 194.5 20.201 195.05 20.051 L 195.2 20.051 Q 195.4 20.001 195.6 19.976 Q 195.8 19.951 196.05 19.951 Q 196.3 19.951 196.525 19.976 Q 196.75 20.001 196.95 20.051 L 198.15 20.051 Q 198.7 20.201 199.05 20.551 L 197.65 20.551 Q 197.8 20.701 197.85 20.801 L 196.95 20.801 Q 197.15 21.051 197.3 21.551 L 198.25 21.551 Q 198.35 21.901 198.4 22.451 L 198.4 22.551 L 195.35 22.551 Q 195.4 22.801 195.4 23.051 Q 195.4 23.301 195.45 23.551 L 195.75 23.551 L 195.75 23.801 L 197.3 23.801 L 197.3 24.051 L 197.7 24.051 L 197.7 24.801 L 197.2 24.801 L 197.2 25.551 L 197.9 25.551 Q 197.85 25.701 197.85 25.851 L 197.85 26.151 L 197.85 26.301 L 197.9 26.301 L 197.9 26.551 L 197.3 26.551 Q 197.3 26.751 197.275 26.926 Q 197.25 27.101 197.2 27.301 L 197.6 27.301 Q 197.45 27.751 197.3 28.051 L 201.55 28.051 Q 201.5 28.201 201.375 28.326 L 201.15 28.551 L 196.2 28.551 Q 195.55 29.051 194.55 29.051 Q 193.5 29.051 192.9 28.551 L 195.9 28.551 Q 195.8 28.451 195.7 28.326 Q 195.6 28.201 195.5 28.051 L 194 28.051 Z M 65 28.051 Q 64.8 27.751 64.7 27.301 L 63.7 27.301 L 63.55 26.551 L 63.45 26.551 Q 63.45 26.401 63.4 26.301 L 63.4 26.151 Q 63.35 26.001 63.35 25.851 L 63.35 25.551 L 62.55 25.551 L 62.55 24.801 L 63.5 24.801 Q 63.45 24.401 63.5 24.051 L 63.5 23.801 L 63.7 23.801 L 63.7 23.551 L 63.8 23.551 Q 63.85 23.351 63.85 23.176 Q 63.85 23.001 63.9 22.851 L 63.9 22.551 L 64.9 22.551 Q 64.95 22.301 65 22.026 Q 65.05 21.751 65.1 21.551 L 62.45 21.551 Q 62.6 21.051 62.8 20.801 L 64.85 20.801 Q 65 20.651 65.05 20.551 L 65.15 20.551 Q 65.5 20.201 66.05 20.051 L 66.2 20.051 Q 66.4 20.001 66.6 19.976 Q 66.8 19.951 67.05 19.951 Q 67.3 19.951 67.525 19.976 Q 67.75 20.001 67.95 20.051 L 69.15 20.051 Q 69.7 20.201 70.05 20.551 L 68.65 20.551 Q 68.8 20.701 68.85 20.801 L 67.95 20.801 Q 68.15 21.051 68.3 21.551 L 69.25 21.551 Q 69.35 21.901 69.4 22.451 L 69.4 22.551 L 66.35 22.551 Q 66.4 22.801 66.4 23.051 Q 66.4 23.301 66.45 23.551 L 66.75 23.551 L 66.75 23.801 L 68.3 23.801 L 68.3 24.051 L 68.7 24.051 L 68.7 24.801 L 68.2 24.801 L 68.2 25.551 L 68.9 25.551 Q 68.85 25.701 68.85 25.851 L 68.85 26.151 L 68.85 26.301 L 68.9 26.301 L 68.9 26.551 L 68.3 26.551 Q 68.3 26.751 68.275 26.926 Q 68.25 27.101 68.2 27.301 L 68.6 27.301 Q 68.45 27.751 68.3 28.051 L 72.55 28.051 Q 72.5 28.201 72.375 28.326 L 72.15 28.551 L 67.2 28.551 Q 66.55 29.051 65.55 29.051 Q 64.5 29.051 63.9 28.551 L 66.9 28.551 Q 66.8 28.451 66.7 28.326 Q 66.6 28.201 66.5 28.051 L 65 28.051 Z M 2.2 7.301 L 1.85 7.301 L 1.85 6.301 L 1.8 6.301 L 1.8 5.551 L 2.25 5.551 L 2.25 5.301 L 2.55 5.301 L 2.55 4.301 L 2.3 4.301 L 2.3 3.551 L 2.35 3.551 L 2.35 2.551 L 2.55 2.551 L 2.55 1.801 L 2.45 1.801 L 2.45 1.351 Q 2.45 0.951 2.55 0.801 L 3.05 0.801 L 3.2 0.551 L 2.8 0.551 Q 3.2 0.001 3.9 0.001 L 12.35 0.001 Q 13.05 0.001 13.45 0.551 L 13.85 0.551 L 14 0.801 L 13.45 0.801 Q 13.6 1.001 13.6 1.351 L 13.6 1.801 L 13.7 1.801 L 13.7 2.551 L 13.5 2.551 L 13.5 3.551 L 13.45 3.551 L 13.45 4.301 L 13.7 4.301 L 13.7 5.301 L 13.4 5.301 L 13.4 5.551 L 12.95 5.551 L 12.95 6.301 L 13 6.301 L 13 7.301 L 13.35 7.301 L 13.35 7.401 Q 13.35 7.851 13 8.301 L 12.4 8.301 Q 12.05 8.751 11.4 8.751 L 2.95 8.751 Q 2.3 8.751 1.9 8.301 L 2.5 8.301 Q 2.2 7.901 2.2 7.401 L 2.2 7.301 Z M 161.25 20.551 L 161.25 20.301 L 160 20.301 Q 160.05 20.201 160.05 20.051 L 161.25 20.051 Q 161.3 19.901 161.325 19.776 Q 161.35 19.651 161.35 19.551 L 162.35 19.551 Q 162.45 19.101 162.65 18.801 L 161.75 18.801 Q 162.25 18.001 163.25 18.001 Q 164.3 18.001 164.8 18.801 Q 165.05 19.101 165.1 19.551 L 165.15 19.551 Q 165.25 19.851 165.25 20.051 L 164.65 20.051 Q 164.7 20.151 164.7 20.301 L 165.2 20.301 L 165.2 20.551 L 166 20.551 L 166 20.801 L 165.65 20.801 L 165.65 21.201 L 161.65 21.201 L 161.65 20.801 L 160.05 20.801 L 160.05 20.551 L 161.25 20.551 Z M 212.85 33.051 L 216.55 33.051 L 216.55 33.801 L 209.5 33.801 L 209.5 33.551 L 209.9 33.551 L 209.9 33.301 L 212.85 33.301 L 212.85 33.051 Z M 180.25 23.801 L 180.25 24.301 L 175.25 24.301 L 175.25 23.801 L 180.25 23.801 Z M 180.6 22.551 L 180.6 23.051 L 175.95 23.051 Q 175.95 22.901 175.9 22.801 L 179.25 22.801 Q 179.25 22.701 179.225 22.651 Q 179.2 22.601 179.2 22.551 L 180.6 22.551 Z M 33.5 13.301 L 32.9 13.801 L 28.75 13.801 L 28.75 13.301 L 33.5 13.301 Z M 210.95 31.801 L 213.8 31.801 L 213.8 32.051 L 210.95 32.051 L 210.95 31.801 Z M 208.05 32.051 L 208.05 32.801 L 207.55 32.801 L 207.55 32.051 L 208.05 32.051 Z M 30.7 12.551 Q 30.6 12.601 30.45 12.701 Q 30.3 12.801 30.2 12.901 L 30.2 12.851 Q 30.2 12.751 30.175 12.676 Q 30.15 12.601 30.15 12.551 L 30.7 12.551 Z M 30.55 14.051 Q 30.25 14.351 30.15 14.501 L 30.15 14.051 L 30.55 14.051 Z"/></g></svg>