<svg width="199.851" height="38.622" viewBox="0 0 199.851 38.622" xmlns="http://www.w3.org/2000/svg"><g id="svgGroup" stroke-linecap="round" fill-rule="evenodd" font-size="9pt" stroke="#000000" stroke-width="0.25mm" fill="#000000" style="stroke:#000000;stroke-width:0.25mm;fill:#000000"><path d="M 15.75 38 L 15.75 35.7 L 19.45 35.7 L 19.45 15.45 L 15.75 14.8 L 15.75 13.1 L 23.45 11.6 L 23.45 16.1 L 23.65 16.1 Q 23.95 15.35 24.575 14.55 Q 25.2 13.75 26.125 13.1 Q 27.05 12.45 28.3 12.025 Q 29.55 11.6 31.05 11.6 Q 35.7 11.6 37.725 14.025 Q 39.75 16.45 39.75 21.3 L 39.75 35.7 L 43.45 35.7 L 43.45 38 L 31.95 38 L 31.95 35.7 L 35.65 35.7 L 35.65 21.65 Q 35.65 14.45 29.6 14.45 Q 28.5 14.45 27.425 14.75 Q 26.35 15.05 25.475 15.7 Q 24.6 16.35 24.075 17.3 Q 23.55 18.25 23.55 19.55 L 23.55 35.7 L 27.25 35.7 L 27.25 38 L 15.75 38 Z M 80.8 28.85 L 80.8 15.45 L 77.1 14.8 L 77.1 13.1 L 84.9 11.6 L 84.9 28.5 Q 84.9 35.75 90.95 35.75 Q 92.05 35.75 93.125 35.45 Q 94.2 35.15 95.075 34.5 Q 95.95 33.85 96.475 32.9 Q 97 31.95 97 30.65 L 97 15.45 L 93.3 14.8 L 93.3 13.1 L 101.1 11.6 L 101.1 34.75 L 104.8 35.4 L 104.8 37.1 L 97.1 38.6 L 97.1 34.1 L 96.9 34.1 Q 96.6 34.85 95.975 35.65 Q 95.35 36.45 94.425 37.1 Q 93.5 37.75 92.25 38.175 Q 91 38.6 89.5 38.6 Q 84.85 38.6 82.825 36.175 Q 80.8 33.75 80.8 28.85 Z M 65.85 16.05 L 66.05 16.05 L 66.05 3.85 L 62.3 3.2 L 62.3 1.45 L 70.15 0 L 70.15 34.75 L 73.85 35.4 L 73.85 37.1 L 66.05 38.6 L 66.05 34.1 L 65.85 34.1 Q 65 35.95 63.15 37.275 Q 61.3 38.6 58.25 38.6 Q 53.45 38.6 50.575 35.125 Q 47.7 31.65 47.7 25.1 Q 47.7 18.55 50.575 15.075 Q 53.45 11.6 58.25 11.6 Q 61.25 11.6 63.125 12.9 Q 65 14.2 65.85 16.05 Z M 179.8 16.05 L 180 16.05 L 180 3.85 L 176.25 3.2 L 176.25 1.45 L 184.1 0 L 184.1 34.75 L 187.8 35.4 L 187.8 37.1 L 180 38.6 L 180 34.1 L 179.8 34.1 Q 178.95 35.95 177.1 37.275 Q 175.25 38.6 172.2 38.6 Q 167.4 38.6 164.525 35.125 Q 161.65 31.65 161.65 25.1 Q 161.65 18.55 164.525 15.075 Q 167.4 11.6 172.2 11.6 Q 175.2 11.6 177.075 12.9 Q 178.95 14.2 179.8 16.05 Z M 125.65 14.9 L 125.65 14.75 Q 125 14.35 123.975 14.15 Q 122.95 13.95 121.35 13.95 Q 119.6 13.95 118.125 14.6 Q 116.65 15.25 115.6 16.425 Q 114.55 17.6 113.95 19.175 Q 113.35 20.75 113.35 22.6 L 113.35 26.3 Q 113.35 28.35 113.9 30.025 Q 114.45 31.7 115.475 32.9 Q 116.5 34.1 117.925 34.75 Q 119.35 35.4 121.15 35.4 Q 124.2 35.4 125.95 34.125 Q 127.7 32.85 128.75 30.8 L 130.35 31.85 Q 129.9 33.15 129.05 34.375 Q 128.2 35.6 127 36.525 Q 125.8 37.45 124.175 38.025 Q 122.55 38.6 120.55 38.6 Q 117.75 38.6 115.575 37.625 Q 113.4 36.65 111.9 34.875 Q 110.4 33.1 109.6 30.625 Q 108.8 28.15 108.8 25.1 Q 108.8 22 109.675 19.5 Q 110.55 17 112.15 15.25 Q 113.75 13.5 115.975 12.55 Q 118.2 11.6 120.9 11.6 Q 124.95 11.6 127.325 13.325 Q 129.7 15.05 129.7 17.7 Q 129.7 19.3 128.875 20.2 Q 128.05 21.1 126.6 21.1 Q 125.05 21.1 124.3 20.2 Q 123.55 19.3 123.55 18.05 Q 123.55 16.95 124.1 16.15 Q 124.65 15.35 125.65 14.9 Z M 156.4 23.8 L 156.4 24.95 L 138.65 24.95 L 138.65 26.25 Q 138.65 30.5 140.775 32.95 Q 142.9 35.4 146.45 35.4 Q 149.55 35.4 151.375 34.125 Q 153.2 32.85 154.25 30.8 L 155.9 31.85 Q 155.4 33.15 154.525 34.375 Q 153.65 35.6 152.4 36.525 Q 151.15 37.45 149.5 38.025 Q 147.85 38.6 145.8 38.6 Q 143.05 38.6 140.875 37.625 Q 138.7 36.65 137.2 34.9 Q 135.7 33.15 134.9 30.65 Q 134.1 28.15 134.1 25.1 Q 134.1 22.1 134.975 19.625 Q 135.85 17.15 137.375 15.35 Q 138.9 13.55 141 12.575 Q 143.1 11.6 145.6 11.6 Q 148.15 11.6 150.15 12.5 Q 152.15 13.4 153.525 15.025 Q 154.9 16.65 155.65 18.9 Q 156.4 21.15 156.4 23.8 Z M 0 38 L 0 35.7 L 3.7 35.7 L 3.7 15.45 L 0 14.8 L 0 13.1 L 7.8 11.6 L 7.8 35.7 L 11.5 35.7 L 11.5 38 L 0 38 Z M 66.05 30.6 Q 66.05 31.8 65.475 32.775 Q 64.9 33.75 63.975 34.4 Q 63.05 35.05 61.85 35.4 Q 60.65 35.75 59.45 35.75 Q 56 35.75 54.075 33.425 Q 52.15 31.1 52.15 27.2 L 52.15 23 Q 52.15 19.1 54.075 16.775 Q 56 14.45 59.45 14.45 Q 60.65 14.45 61.85 14.8 Q 63.05 15.15 63.975 15.8 Q 64.9 16.45 65.475 17.425 Q 66.05 18.4 66.05 19.6 L 66.05 30.6 Z M 180 30.6 Q 180 31.8 179.425 32.775 Q 178.85 33.75 177.925 34.4 Q 177 35.05 175.8 35.4 Q 174.6 35.75 173.4 35.75 Q 169.95 35.75 168.025 33.425 Q 166.1 31.1 166.1 27.2 L 166.1 23 Q 166.1 19.1 168.025 16.775 Q 169.95 14.45 173.4 14.45 Q 174.6 14.45 175.8 14.8 Q 177 15.15 177.925 15.8 Q 178.85 16.45 179.425 17.425 Q 180 18.4 180 19.6 L 180 30.6 Z M 138.65 22.05 Q 138.65 20.3 139.1 18.825 Q 139.55 17.35 140.425 16.25 Q 141.3 15.15 142.6 14.55 Q 143.9 13.95 145.6 13.95 Q 147.3 13.95 148.525 14.575 Q 149.75 15.2 150.55 16.3 Q 151.35 17.4 151.725 18.9 Q 152.1 20.4 152.1 22.15 L 152.1 22.65 L 138.65 22.65 L 138.65 22.05 Z M 193.65 35.6 L 193.65 35.3 Q 193.65 34.05 194.475 33.175 Q 195.3 32.3 196.75 32.3 Q 198.2 32.3 199.025 33.175 Q 199.85 34.05 199.85 35.3 L 199.85 35.6 Q 199.85 36.85 199.025 37.725 Q 198.2 38.6 196.75 38.6 Q 195.3 38.6 194.475 37.725 Q 193.65 36.85 193.65 35.6 Z M 3.1 3.6 L 3.1 3.35 Q 3.1 2.25 3.775 1.475 Q 4.45 0.7 5.75 0.7 Q 7.05 0.7 7.75 1.475 Q 8.45 2.25 8.45 3.35 L 8.45 3.6 Q 8.45 4.7 7.75 5.475 Q 7.05 6.25 5.75 6.25 Q 4.45 6.25 3.775 5.475 Q 3.1 4.7 3.1 3.6 Z"/></g></svg>