<svg width="1244.202" height="47.42" viewBox="0 0 1244.202 47.42" xmlns="http://www.w3.org/2000/svg"><g id="svgGroup" stroke-linecap="round" fill-rule="evenodd" font-size="9pt" stroke="#000000" stroke-width="0.25mm" fill="#000000" style="stroke:#000000;stroke-width:0.25mm;fill:#000000"><path d="M 419.65 37.418 L 419.65 34.018 L 428.35 34.018 L 428.35 15.018 L 419.15 15.018 L 419.15 11.618 L 428.35 11.618 L 428.35 6.318 Q 428.35 3.718 429.725 2.068 Q 431.1 0.418 434.05 0.418 L 442.7 0.418 L 442.7 3.818 L 432.35 3.818 L 432.35 11.618 L 442.7 11.618 L 442.7 15.018 L 432.35 15.018 L 432.35 34.018 L 441.55 34.018 L 441.55 37.418 L 419.65 37.418 Z M 538.85 32.968 L 541.55 30.618 Q 543.4 32.568 545.6 33.618 Q 547.8 34.668 550.9 34.668 Q 553.9 34.668 555.825 33.593 Q 557.75 32.518 557.75 30.218 Q 557.75 29.218 557.375 28.543 Q 557 27.868 556.35 27.468 Q 555.7 27.068 554.9 26.843 Q 554.1 26.618 553.2 26.468 L 549.15 25.868 Q 547.8 25.668 546.225 25.318 Q 544.65 24.968 543.35 24.193 Q 542.05 23.418 541.175 22.118 Q 540.3 20.818 540.3 18.718 Q 540.3 16.768 541.075 15.343 Q 541.85 13.918 543.25 12.943 Q 544.65 11.968 546.55 11.493 Q 548.45 11.018 550.7 11.018 Q 554.2 11.018 556.775 12.118 Q 559.35 13.218 561.2 15.168 L 558.6 17.618 Q 558.15 17.068 557.475 16.493 Q 556.8 15.918 555.825 15.443 Q 554.85 14.968 553.55 14.668 Q 552.25 14.368 550.55 14.368 Q 547.5 14.368 545.875 15.418 Q 544.25 16.468 544.25 18.468 Q 544.25 19.468 544.625 20.143 Q 545 20.818 545.65 21.218 Q 546.3 21.618 547.125 21.843 Q 547.95 22.068 548.8 22.218 L 552.85 22.818 Q 554.25 23.018 555.8 23.368 Q 557.35 23.718 558.65 24.493 Q 559.95 25.268 560.825 26.568 Q 561.7 27.868 561.7 29.968 Q 561.7 33.818 558.725 35.918 Q 555.75 38.018 550.8 38.018 Q 546.75 38.018 543.825 36.643 Q 540.9 35.268 538.85 32.968 Z M 838.85 32.968 L 841.55 30.618 Q 843.4 32.568 845.6 33.618 Q 847.8 34.668 850.9 34.668 Q 853.9 34.668 855.825 33.593 Q 857.75 32.518 857.75 30.218 Q 857.75 29.218 857.375 28.543 Q 857 27.868 856.35 27.468 Q 855.7 27.068 854.9 26.843 Q 854.1 26.618 853.2 26.468 L 849.15 25.868 Q 847.8 25.668 846.225 25.318 Q 844.65 24.968 843.35 24.193 Q 842.05 23.418 841.175 22.118 Q 840.3 20.818 840.3 18.718 Q 840.3 16.768 841.075 15.343 Q 841.85 13.918 843.25 12.943 Q 844.65 11.968 846.55 11.493 Q 848.45 11.018 850.7 11.018 Q 854.2 11.018 856.775 12.118 Q 859.35 13.218 861.2 15.168 L 858.6 17.618 Q 858.15 17.068 857.475 16.493 Q 856.8 15.918 855.825 15.443 Q 854.85 14.968 853.55 14.668 Q 852.25 14.368 850.55 14.368 Q 847.5 14.368 845.875 15.418 Q 844.25 16.468 844.25 18.468 Q 844.25 19.468 844.625 20.143 Q 845 20.818 845.65 21.218 Q 846.3 21.618 847.125 21.843 Q 847.95 22.068 848.8 22.218 L 852.85 22.818 Q 854.25 23.018 855.8 23.368 Q 857.35 23.718 858.65 24.493 Q 859.95 25.268 860.825 26.568 Q 861.7 27.868 861.7 29.968 Q 861.7 33.818 858.725 35.918 Q 855.75 38.018 850.8 38.018 Q 846.75 38.018 843.825 36.643 Q 840.9 35.268 838.85 32.968 Z M 88.85 32.968 L 91.55 30.618 Q 93.4 32.568 95.6 33.618 Q 97.8 34.668 100.9 34.668 Q 103.9 34.668 105.825 33.593 Q 107.75 32.518 107.75 30.218 Q 107.75 29.218 107.375 28.543 Q 107 27.868 106.35 27.468 Q 105.7 27.068 104.9 26.843 Q 104.1 26.618 103.2 26.468 L 99.15 25.868 Q 97.8 25.668 96.225 25.318 Q 94.65 24.968 93.35 24.193 Q 92.05 23.418 91.175 22.118 Q 90.3 20.818 90.3 18.718 Q 90.3 16.768 91.075 15.343 Q 91.85 13.918 93.25 12.943 Q 94.65 11.968 96.55 11.493 Q 98.45 11.018 100.7 11.018 Q 104.2 11.018 106.775 12.118 Q 109.35 13.218 111.2 15.168 L 108.6 17.618 Q 108.15 17.068 107.475 16.493 Q 106.8 15.918 105.825 15.443 Q 104.85 14.968 103.55 14.668 Q 102.25 14.368 100.55 14.368 Q 97.5 14.368 95.875 15.418 Q 94.25 16.468 94.25 18.468 Q 94.25 19.468 94.625 20.143 Q 95 20.818 95.65 21.218 Q 96.3 21.618 97.125 21.843 Q 97.95 22.068 98.8 22.218 L 102.85 22.818 Q 104.25 23.018 105.8 23.368 Q 107.35 23.718 108.65 24.493 Q 109.95 25.268 110.825 26.568 Q 111.7 27.868 111.7 29.968 Q 111.7 33.818 108.725 35.918 Q 105.75 38.018 100.8 38.018 Q 96.75 38.018 93.825 36.643 Q 90.9 35.268 88.85 32.968 Z M 314.5 22.418 L 318.85 11.618 L 322.85 11.618 L 310.05 43.068 Q 309.6 44.168 309.05 44.993 Q 308.5 45.818 307.75 46.343 Q 307 46.868 305.95 47.143 Q 304.9 47.418 303.45 47.418 L 299.65 47.418 L 299.65 44.018 L 305.65 44.018 L 308.55 36.918 L 298.15 11.618 L 302.25 11.618 L 306.6 22.418 L 310.45 32.218 L 310.65 32.218 L 314.5 22.418 Z M 614.5 22.418 L 618.85 11.618 L 622.85 11.618 L 610.05 43.068 Q 609.6 44.168 609.05 44.993 Q 608.5 45.818 607.75 46.343 Q 607 46.868 605.95 47.143 Q 604.9 47.418 603.45 47.418 L 599.65 47.418 L 599.65 44.018 L 605.65 44.018 L 608.55 36.918 L 598.15 11.618 L 602.25 11.618 L 606.6 22.418 L 610.45 32.218 L 610.65 32.218 L 614.5 22.418 Z M 1214.5 22.418 L 1218.85 11.618 L 1222.85 11.618 L 1210.05 43.068 Q 1209.6 44.168 1209.05 44.993 Q 1208.5 45.818 1207.75 46.343 Q 1207 46.868 1205.95 47.143 Q 1204.9 47.418 1203.45 47.418 L 1199.65 47.418 L 1199.65 44.018 L 1205.65 44.018 L 1208.55 36.918 L 1198.15 11.618 L 1202.25 11.618 L 1206.6 22.418 L 1210.45 32.218 L 1210.65 32.218 L 1214.5 22.418 Z M 1019.35 37.418 L 1019.35 34.018 L 1026.9 34.018 L 1026.9 15.018 L 1019.35 15.018 L 1019.35 11.618 L 1030.9 11.618 L 1030.9 18.118 L 1031.15 18.118 Q 1031.95 15.068 1034.175 13.343 Q 1036.4 11.618 1039.85 11.618 L 1043.45 11.618 L 1043.45 15.618 L 1038.6 15.618 Q 1035.15 15.618 1033.025 17.618 Q 1030.9 19.618 1030.9 22.868 L 1030.9 34.018 L 1040.9 34.018 L 1040.9 37.418 L 1019.35 37.418 Z M 59.35 37.418 L 59.35 34.018 L 66.9 34.018 L 66.9 15.018 L 59.35 15.018 L 59.35 11.618 L 70.9 11.618 L 70.9 18.118 L 71.15 18.118 Q 71.95 15.068 74.175 13.343 Q 76.4 11.618 79.85 11.618 L 83.45 11.618 L 83.45 15.618 L 78.6 15.618 Q 75.15 15.618 73.025 17.618 Q 70.9 19.618 70.9 22.868 L 70.9 34.018 L 80.9 34.018 L 80.9 37.418 L 59.35 37.418 Z M 689.35 37.418 L 689.35 34.018 L 696.9 34.018 L 696.9 15.018 L 689.35 15.018 L 689.35 11.618 L 700.9 11.618 L 700.9 18.118 L 701.15 18.118 Q 701.95 15.068 704.175 13.343 Q 706.4 11.618 709.85 11.618 L 713.45 11.618 L 713.45 15.618 L 708.6 15.618 Q 705.15 15.618 703.025 17.618 Q 700.9 19.618 700.9 22.868 L 700.9 34.018 L 710.9 34.018 L 710.9 37.418 L 689.35 37.418 Z M 809.35 37.418 L 809.35 34.018 L 816.9 34.018 L 816.9 15.018 L 809.35 15.018 L 809.35 11.618 L 820.9 11.618 L 820.9 18.118 L 821.15 18.118 Q 821.95 15.068 824.175 13.343 Q 826.4 11.618 829.85 11.618 L 833.45 11.618 L 833.45 15.618 L 828.6 15.618 Q 825.15 15.618 823.025 17.618 Q 820.9 19.618 820.9 22.868 L 820.9 34.018 L 830.9 34.018 L 830.9 37.418 L 809.35 37.418 Z M 291.8 37.418 L 281.75 37.418 Q 278.8 37.418 277.425 35.768 Q 276.05 34.118 276.05 31.518 L 276.05 15.018 L 267.45 15.018 L 267.45 11.618 L 273.85 11.618 Q 275.15 11.618 275.675 11.093 Q 276.2 10.568 276.2 9.268 L 276.2 2.518 L 280.05 2.518 L 280.05 11.618 L 291.8 11.618 L 291.8 15.018 L 280.05 15.018 L 280.05 34.018 L 291.8 34.018 L 291.8 37.418 Z M 1191.8 37.418 L 1181.75 37.418 Q 1178.8 37.418 1177.425 35.768 Q 1176.05 34.118 1176.05 31.518 L 1176.05 15.018 L 1167.45 15.018 L 1167.45 11.618 L 1173.85 11.618 Q 1175.15 11.618 1175.675 11.093 Q 1176.2 10.568 1176.2 9.268 L 1176.2 2.518 L 1180.05 2.518 L 1180.05 11.618 L 1191.8 11.618 L 1191.8 15.018 L 1180.05 15.018 L 1180.05 34.018 L 1191.8 34.018 L 1191.8 37.418 Z M 676.6 37.418 L 676.6 33.218 L 676.4 33.218 Q 676 34.168 675.4 35.043 Q 674.8 35.918 673.925 36.568 Q 673.05 37.218 671.85 37.618 Q 670.65 38.018 669.05 38.018 Q 665 38.018 662.55 35.443 Q 660.1 32.868 660.1 28.168 L 660.1 11.618 L 664.1 11.618 L 664.1 27.468 Q 664.1 31.018 665.65 32.743 Q 667.2 34.468 670.2 34.468 Q 671.4 34.468 672.55 34.168 Q 673.7 33.868 674.6 33.268 Q 675.5 32.668 676.05 31.743 Q 676.6 30.818 676.6 29.518 L 676.6 11.618 L 680.6 11.618 L 680.6 37.418 L 676.6 37.418 Z M 484.4 37.418 L 480.4 37.418 L 480.4 11.618 L 484.4 11.618 L 484.4 15.818 L 484.6 15.818 Q 485 14.868 485.6 13.993 Q 486.2 13.118 487.075 12.468 Q 487.95 11.818 489.15 11.418 Q 490.35 11.018 491.95 11.018 Q 496 11.018 498.45 13.593 Q 500.9 16.168 500.9 20.868 L 500.9 37.418 L 496.9 37.418 L 496.9 21.568 Q 496.9 18.018 495.35 16.293 Q 493.8 14.568 490.8 14.568 Q 489.6 14.568 488.45 14.868 Q 487.3 15.168 486.4 15.768 Q 485.5 16.368 484.95 17.318 Q 484.4 18.268 484.4 19.518 L 484.4 37.418 Z M 904.4 37.418 L 900.4 37.418 L 900.4 11.618 L 904.4 11.618 L 904.4 15.818 L 904.6 15.818 Q 905 14.868 905.6 13.993 Q 906.2 13.118 907.075 12.468 Q 907.95 11.818 909.15 11.418 Q 910.35 11.018 911.95 11.018 Q 916 11.018 918.45 13.593 Q 920.9 16.168 920.9 20.868 L 920.9 37.418 L 916.9 37.418 L 916.9 21.568 Q 916.9 18.018 915.35 16.293 Q 913.8 14.568 910.8 14.568 Q 909.6 14.568 908.45 14.868 Q 907.3 15.168 906.4 15.768 Q 905.5 16.368 904.95 17.318 Q 904.4 18.268 904.4 19.518 L 904.4 37.418 Z M 154.4 37.418 L 150.4 37.418 L 150.4 11.618 L 154.4 11.618 L 154.4 15.818 L 154.6 15.818 Q 155 14.868 155.6 13.993 Q 156.2 13.118 157.075 12.468 Q 157.95 11.818 159.15 11.418 Q 160.35 11.018 161.95 11.018 Q 166 11.018 168.45 13.593 Q 170.9 16.168 170.9 20.868 L 170.9 37.418 L 166.9 37.418 L 166.9 21.568 Q 166.9 18.018 165.35 16.293 Q 163.8 14.568 160.8 14.568 Q 159.6 14.568 158.45 14.868 Q 157.3 15.168 156.4 15.768 Q 155.5 16.368 154.95 17.318 Q 154.4 18.268 154.4 19.518 L 154.4 37.418 Z M 209.5 37.418 L 209.5 34.018 L 218.5 34.018 L 218.5 3.818 L 209.5 3.818 L 209.5 0.418 L 222.5 0.418 L 222.5 34.018 L 231.5 34.018 L 231.5 37.418 L 209.5 37.418 Z M 959.5 37.418 L 959.5 34.018 L 968.5 34.018 L 968.5 3.818 L 959.5 3.818 L 959.5 0.418 L 972.5 0.418 L 972.5 34.018 L 981.5 34.018 L 981.5 37.418 L 959.5 37.418 Z M 1109.5 37.418 L 1109.5 34.018 L 1118.5 34.018 L 1118.5 3.818 L 1109.5 3.818 L 1109.5 0.418 L 1122.5 0.418 L 1122.5 34.018 L 1131.5 34.018 L 1131.5 37.418 L 1109.5 37.418 Z M 953 37.418 L 950.25 37.418 Q 947.9 37.418 946.9 36.218 Q 945.9 35.018 945.65 33.218 L 945.4 33.218 Q 944.55 35.468 942.675 36.743 Q 940.8 38.018 937.65 38.018 Q 933.6 38.018 931.2 35.918 Q 928.8 33.818 928.8 30.168 Q 928.8 26.568 931.425 24.618 Q 934.05 22.668 939.9 22.668 L 945.4 22.668 L 945.4 20.118 Q 945.4 17.268 943.8 15.843 Q 942.2 14.418 939.25 14.418 Q 936.65 14.418 935 15.443 Q 933.35 16.468 932.35 18.218 L 929.65 16.218 Q 930.15 15.218 931 14.268 Q 931.85 13.318 933.1 12.593 Q 934.35 11.868 935.95 11.443 Q 937.55 11.018 939.5 11.018 Q 944.05 11.018 946.725 13.318 Q 949.4 15.618 949.4 19.718 L 949.4 33.918 L 953 33.918 L 953 37.418 Z M 203 37.418 L 200.25 37.418 Q 197.9 37.418 196.9 36.218 Q 195.9 35.018 195.65 33.218 L 195.4 33.218 Q 194.55 35.468 192.675 36.743 Q 190.8 38.018 187.65 38.018 Q 183.6 38.018 181.2 35.918 Q 178.8 33.818 178.8 30.168 Q 178.8 26.568 181.425 24.618 Q 184.05 22.668 189.9 22.668 L 195.4 22.668 L 195.4 20.118 Q 195.4 17.268 193.8 15.843 Q 192.2 14.418 189.25 14.418 Q 186.65 14.418 185 15.443 Q 183.35 16.468 182.35 18.218 L 179.65 16.218 Q 180.15 15.218 181 14.268 Q 181.85 13.318 183.1 12.593 Q 184.35 11.868 185.95 11.443 Q 187.55 11.018 189.5 11.018 Q 194.05 11.018 196.725 13.318 Q 199.4 15.618 199.4 19.718 L 199.4 33.918 L 203 33.918 L 203 37.418 Z M 1103 37.418 L 1100.25 37.418 Q 1097.9 37.418 1096.9 36.218 Q 1095.9 35.018 1095.65 33.218 L 1095.4 33.218 Q 1094.55 35.468 1092.675 36.743 Q 1090.8 38.018 1087.65 38.018 Q 1083.6 38.018 1081.2 35.918 Q 1078.8 33.818 1078.8 30.168 Q 1078.8 26.568 1081.425 24.618 Q 1084.05 22.668 1089.9 22.668 L 1095.4 22.668 L 1095.4 20.118 Q 1095.4 17.268 1093.8 15.843 Q 1092.2 14.418 1089.25 14.418 Q 1086.65 14.418 1085 15.443 Q 1083.35 16.468 1082.35 18.218 L 1079.65 16.218 Q 1080.15 15.218 1081 14.268 Q 1081.85 13.318 1083.1 12.593 Q 1084.35 11.868 1085.95 11.443 Q 1087.55 11.018 1089.5 11.018 Q 1094.05 11.018 1096.725 13.318 Q 1099.4 15.618 1099.4 19.718 L 1099.4 33.918 L 1103 33.918 L 1103 37.418 Z M 376.75 37.418 L 376.75 33.218 L 376.55 33.218 Q 374.05 38.018 368.6 38.018 Q 363.85 38.018 361.175 34.468 Q 358.5 30.918 358.5 24.518 Q 358.5 18.118 361.175 14.568 Q 363.85 11.018 368.6 11.018 Q 374.05 11.018 376.55 15.818 L 376.75 15.818 L 376.75 0.418 L 380.75 0.418 L 380.75 37.418 L 376.75 37.418 Z M 750.25 47.418 L 750.25 11.618 L 754.25 11.618 L 754.25 15.818 L 754.45 15.818 Q 756.95 11.018 762.4 11.018 Q 767.15 11.018 769.825 14.568 Q 772.5 18.118 772.5 24.518 Q 772.5 30.918 769.825 34.468 Q 767.15 38.018 762.4 38.018 Q 756.95 38.018 754.45 33.218 L 754.25 33.218 L 754.25 47.418 L 750.25 47.418 Z M 1072.15 23.618 L 1072.15 25.518 L 1053.05 25.518 L 1053.05 26.718 Q 1053.05 28.418 1053.6 29.868 Q 1054.15 31.318 1055.175 32.368 Q 1056.2 33.418 1057.675 33.993 Q 1059.15 34.568 1060.95 34.568 Q 1063.55 34.568 1065.45 33.368 Q 1067.35 32.168 1068.35 30.068 L 1071.3 32.068 Q 1070.15 34.668 1067.475 36.343 Q 1064.8 38.018 1060.95 38.018 Q 1058.15 38.018 1055.925 37.068 Q 1053.7 36.118 1052.125 34.343 Q 1050.55 32.568 1049.7 30.093 Q 1048.85 27.618 1048.85 24.568 Q 1048.85 21.468 1049.725 18.968 Q 1050.6 16.468 1052.15 14.693 Q 1053.7 12.918 1055.875 11.968 Q 1058.05 11.018 1060.7 11.018 Q 1063.3 11.018 1065.425 11.968 Q 1067.55 12.918 1069.05 14.593 Q 1070.55 16.268 1071.35 18.568 Q 1072.15 20.868 1072.15 23.618 Z M 52.15 23.618 L 52.15 25.518 L 33.05 25.518 L 33.05 26.718 Q 33.05 28.418 33.6 29.868 Q 34.15 31.318 35.175 32.368 Q 36.2 33.418 37.675 33.993 Q 39.15 34.568 40.95 34.568 Q 43.55 34.568 45.45 33.368 Q 47.35 32.168 48.35 30.068 L 51.3 32.068 Q 50.15 34.668 47.475 36.343 Q 44.8 38.018 40.95 38.018 Q 38.15 38.018 35.925 37.068 Q 33.7 36.118 32.125 34.343 Q 30.55 32.568 29.7 30.093 Q 28.85 27.618 28.85 24.568 Q 28.85 21.468 29.725 18.968 Q 30.6 16.468 32.15 14.693 Q 33.7 12.918 35.875 11.968 Q 38.05 11.018 40.7 11.018 Q 43.3 11.018 45.425 11.968 Q 47.55 12.918 49.05 14.593 Q 50.55 16.268 51.35 18.568 Q 52.15 20.868 52.15 23.618 Z M 532.15 23.618 L 532.15 25.518 L 513.05 25.518 L 513.05 26.718 Q 513.05 28.418 513.6 29.868 Q 514.15 31.318 515.175 32.368 Q 516.2 33.418 517.675 33.993 Q 519.15 34.568 520.95 34.568 Q 523.55 34.568 525.45 33.368 Q 527.35 32.168 528.35 30.068 L 531.3 32.068 Q 530.15 34.668 527.475 36.343 Q 524.8 38.018 520.95 38.018 Q 518.15 38.018 515.925 37.068 Q 513.7 36.118 512.125 34.343 Q 510.55 32.568 509.7 30.093 Q 508.85 27.618 508.85 24.568 Q 508.85 21.468 509.725 18.968 Q 510.6 16.468 512.15 14.693 Q 513.7 12.918 515.875 11.968 Q 518.05 11.018 520.7 11.018 Q 523.3 11.018 525.425 11.968 Q 527.55 12.918 529.05 14.593 Q 530.55 16.268 531.35 18.568 Q 532.15 20.868 532.15 23.618 Z M 802.15 23.618 L 802.15 25.518 L 783.05 25.518 L 783.05 26.718 Q 783.05 28.418 783.6 29.868 Q 784.15 31.318 785.175 32.368 Q 786.2 33.418 787.675 33.993 Q 789.15 34.568 790.95 34.568 Q 793.55 34.568 795.45 33.368 Q 797.35 32.168 798.35 30.068 L 801.3 32.068 Q 800.15 34.668 797.475 36.343 Q 794.8 38.018 790.95 38.018 Q 788.15 38.018 785.925 37.068 Q 783.7 36.118 782.125 34.343 Q 780.55 32.568 779.7 30.093 Q 778.85 27.618 778.85 24.568 Q 778.85 21.468 779.725 18.968 Q 780.6 16.468 782.15 14.693 Q 783.7 12.918 785.875 11.968 Q 788.05 11.018 790.7 11.018 Q 793.3 11.018 795.425 11.968 Q 797.55 12.918 799.05 14.593 Q 800.55 16.268 801.35 18.568 Q 802.15 20.868 802.15 23.618 Z M 412.15 23.618 L 412.15 25.518 L 393.05 25.518 L 393.05 26.718 Q 393.05 28.418 393.6 29.868 Q 394.15 31.318 395.175 32.368 Q 396.2 33.418 397.675 33.993 Q 399.15 34.568 400.95 34.568 Q 403.55 34.568 405.45 33.368 Q 407.35 32.168 408.35 30.068 L 411.3 32.068 Q 410.15 34.668 407.475 36.343 Q 404.8 38.018 400.95 38.018 Q 398.15 38.018 395.925 37.068 Q 393.7 36.118 392.125 34.343 Q 390.55 32.568 389.7 30.093 Q 388.85 27.618 388.85 24.568 Q 388.85 21.468 389.725 18.968 Q 390.6 16.468 392.15 14.693 Q 393.7 12.918 395.875 11.968 Q 398.05 11.018 400.7 11.018 Q 403.3 11.018 405.425 11.968 Q 407.55 12.918 409.05 14.593 Q 410.55 16.268 411.35 18.568 Q 412.15 20.868 412.15 23.618 Z M 450.8 37.418 L 450.8 34.018 L 460.1 34.018 L 460.1 15.018 L 450.8 15.018 L 450.8 11.618 L 464.1 11.618 L 464.1 34.018 L 472.8 34.018 L 472.8 37.418 L 450.8 37.418 Z M 240.8 37.418 L 240.8 34.018 L 250.1 34.018 L 250.1 15.018 L 240.8 15.018 L 240.8 11.618 L 254.1 11.618 L 254.1 34.018 L 262.8 34.018 L 262.8 37.418 L 240.8 37.418 Z M 1140.8 37.418 L 1140.8 34.018 L 1150.1 34.018 L 1150.1 15.018 L 1140.8 15.018 L 1140.8 11.618 L 1154.1 11.618 L 1154.1 34.018 L 1162.8 34.018 L 1162.8 37.418 L 1140.8 37.418 Z M 4.2 37.418 L 0 37.418 L 0 2.518 L 12.7 2.518 Q 17.55 2.518 20.1 5.168 Q 22.65 7.818 22.65 12.568 Q 22.65 17.318 20.1 19.968 Q 17.55 22.618 12.7 22.618 L 4.2 22.618 L 4.2 37.418 Z M 130.5 38.018 Q 127.8 38.018 125.625 37.068 Q 123.45 36.118 121.925 34.343 Q 120.4 32.568 119.6 30.093 Q 118.8 27.618 118.8 24.518 Q 118.8 21.468 119.6 18.968 Q 120.4 16.468 121.925 14.693 Q 123.45 12.918 125.625 11.968 Q 127.8 11.018 130.5 11.018 Q 133.2 11.018 135.375 11.968 Q 137.55 12.918 139.075 14.693 Q 140.6 16.468 141.4 18.968 Q 142.2 21.468 142.2 24.518 Q 142.2 27.618 141.4 30.093 Q 140.6 32.568 139.075 34.343 Q 137.55 36.118 135.375 37.068 Q 133.2 38.018 130.5 38.018 Z M 640.5 38.018 Q 637.8 38.018 635.625 37.068 Q 633.45 36.118 631.925 34.343 Q 630.4 32.568 629.6 30.093 Q 628.8 27.618 628.8 24.518 Q 628.8 21.468 629.6 18.968 Q 630.4 16.468 631.925 14.693 Q 633.45 12.918 635.625 11.968 Q 637.8 11.018 640.5 11.018 Q 643.2 11.018 645.375 11.968 Q 647.55 12.918 649.075 14.693 Q 650.6 16.468 651.4 18.968 Q 652.2 21.468 652.2 24.518 Q 652.2 27.618 651.4 30.093 Q 650.6 32.568 649.075 34.343 Q 647.55 36.118 645.375 37.068 Q 643.2 38.018 640.5 38.018 Z M 880.5 38.018 Q 877.8 38.018 875.625 37.068 Q 873.45 36.118 871.925 34.343 Q 870.4 32.568 869.6 30.093 Q 868.8 27.618 868.8 24.518 Q 868.8 21.468 869.6 18.968 Q 870.4 16.468 871.925 14.693 Q 873.45 12.918 875.625 11.968 Q 877.8 11.018 880.5 11.018 Q 883.2 11.018 885.375 11.968 Q 887.55 12.918 889.075 14.693 Q 890.6 16.468 891.4 18.968 Q 892.2 21.468 892.2 24.518 Q 892.2 27.618 891.4 30.093 Q 890.6 32.568 889.075 34.343 Q 887.55 36.118 885.375 37.068 Q 883.2 38.018 880.5 38.018 Z M 137.95 26.368 Q 137.95 30.568 135.9 32.568 Q 133.85 34.568 130.5 34.568 Q 127.15 34.568 125.1 32.568 Q 123.05 30.568 123.05 26.368 L 123.05 22.668 Q 123.05 18.468 125.1 16.468 Q 127.15 14.468 130.5 14.468 Q 133.85 14.468 135.9 16.468 Q 137.95 18.468 137.95 22.668 L 137.95 26.368 Z M 647.95 26.368 Q 647.95 30.568 645.9 32.568 Q 643.85 34.568 640.5 34.568 Q 637.15 34.568 635.1 32.568 Q 633.05 30.568 633.05 26.368 L 633.05 22.668 Q 633.05 18.468 635.1 16.468 Q 637.15 14.468 640.5 14.468 Q 643.85 14.468 645.9 16.468 Q 647.95 18.468 647.95 22.668 L 647.95 26.368 Z M 887.95 26.368 Q 887.95 30.568 885.9 32.568 Q 883.85 34.568 880.5 34.568 Q 877.15 34.568 875.1 32.568 Q 873.05 30.568 873.05 26.368 L 873.05 22.668 Q 873.05 18.468 875.1 16.468 Q 877.15 14.468 880.5 14.468 Q 883.85 14.468 885.9 16.468 Q 887.95 18.468 887.95 22.668 L 887.95 26.368 Z M 768.2 26.718 Q 768.2 30.218 766.275 32.343 Q 764.35 34.468 760.85 34.468 Q 759.5 34.468 758.3 34.118 Q 757.1 33.768 756.2 33.093 Q 755.3 32.418 754.775 31.443 Q 754.25 30.468 754.25 29.168 L 754.25 19.868 Q 754.25 18.568 754.775 17.593 Q 755.3 16.618 756.2 15.943 Q 757.1 15.268 758.3 14.918 Q 759.5 14.568 760.85 14.568 Q 764.35 14.568 766.275 16.693 Q 768.2 18.818 768.2 22.318 L 768.2 26.718 Z M 376.75 29.168 Q 376.75 30.468 376.225 31.443 Q 375.7 32.418 374.8 33.093 Q 373.9 33.768 372.7 34.118 Q 371.5 34.468 370.15 34.468 Q 366.65 34.468 364.725 32.343 Q 362.8 30.218 362.8 26.718 L 362.8 22.318 Q 362.8 18.818 364.725 16.693 Q 366.65 14.568 370.15 14.568 Q 371.5 14.568 372.7 14.918 Q 373.9 15.268 374.8 15.943 Q 375.7 16.618 376.225 17.593 Q 376.75 18.568 376.75 19.868 L 376.75 29.168 Z M 4.2 6.168 L 12.6 6.168 Q 15.25 6.168 16.725 7.493 Q 18.2 8.818 18.2 11.268 L 18.2 13.868 Q 18.2 16.318 16.725 17.643 Q 15.25 18.968 12.6 18.968 L 4.2 18.968 L 4.2 6.168 Z M 513.05 22.168 Q 513.05 20.468 513.625 19.043 Q 514.2 17.618 515.225 16.568 Q 516.25 15.518 517.65 14.918 Q 519.05 14.318 520.7 14.318 Q 522.3 14.318 523.625 14.868 Q 524.95 15.418 525.875 16.443 Q 526.8 17.468 527.325 18.868 Q 527.85 20.268 527.85 21.968 L 527.85 22.518 L 513.05 22.518 L 513.05 22.168 Z M 783.05 22.168 Q 783.05 20.468 783.625 19.043 Q 784.2 17.618 785.225 16.568 Q 786.25 15.518 787.65 14.918 Q 789.05 14.318 790.7 14.318 Q 792.3 14.318 793.625 14.868 Q 794.95 15.418 795.875 16.443 Q 796.8 17.468 797.325 18.868 Q 797.85 20.268 797.85 21.968 L 797.85 22.518 L 783.05 22.518 L 783.05 22.168 Z M 393.05 22.168 Q 393.05 20.468 393.625 19.043 Q 394.2 17.618 395.225 16.568 Q 396.25 15.518 397.65 14.918 Q 399.05 14.318 400.7 14.318 Q 402.3 14.318 403.625 14.868 Q 404.95 15.418 405.875 16.443 Q 406.8 17.468 407.325 18.868 Q 407.85 20.268 407.85 21.968 L 407.85 22.518 L 393.05 22.518 L 393.05 22.168 Z M 33.05 22.168 Q 33.05 20.468 33.625 19.043 Q 34.2 17.618 35.225 16.568 Q 36.25 15.518 37.65 14.918 Q 39.05 14.318 40.7 14.318 Q 42.3 14.318 43.625 14.868 Q 44.95 15.418 45.875 16.443 Q 46.8 17.468 47.325 18.868 Q 47.85 20.268 47.85 21.968 L 47.85 22.518 L 33.05 22.518 L 33.05 22.168 Z M 1053.05 22.168 Q 1053.05 20.468 1053.625 19.043 Q 1054.2 17.618 1055.225 16.568 Q 1056.25 15.518 1057.65 14.918 Q 1059.05 14.318 1060.7 14.318 Q 1062.3 14.318 1063.625 14.868 Q 1064.95 15.418 1065.875 16.443 Q 1066.8 17.468 1067.325 18.868 Q 1067.85 20.268 1067.85 21.968 L 1067.85 22.518 L 1053.05 22.518 L 1053.05 22.168 Z M 195.4 29.918 Q 195.4 30.918 194.875 31.793 Q 194.35 32.668 193.4 33.293 Q 192.45 33.918 191.175 34.293 Q 189.9 34.668 188.35 34.668 Q 185.85 34.668 184.425 33.643 Q 183 32.618 183 30.618 L 183 29.568 Q 183 27.668 184.65 26.668 Q 186.3 25.668 189.9 25.668 L 195.4 25.668 L 195.4 29.918 Z M 945.4 29.918 Q 945.4 30.918 944.875 31.793 Q 944.35 32.668 943.4 33.293 Q 942.45 33.918 941.175 34.293 Q 939.9 34.668 938.35 34.668 Q 935.85 34.668 934.425 33.643 Q 933 32.618 933 30.618 L 933 29.568 Q 933 27.668 934.65 26.668 Q 936.3 25.668 939.9 25.668 L 945.4 25.668 L 945.4 29.918 Z M 1095.4 29.918 Q 1095.4 30.918 1094.875 31.793 Q 1094.35 32.668 1093.4 33.293 Q 1092.45 33.918 1091.175 34.293 Q 1089.9 34.668 1088.35 34.668 Q 1085.85 34.668 1084.425 33.643 Q 1083 32.618 1083 30.618 L 1083 29.568 Q 1083 27.668 1084.65 26.668 Q 1086.3 25.668 1089.9 25.668 L 1095.4 25.668 L 1095.4 29.918 Z M 1236.8 34.868 L 1236.8 33.968 Q 1236.8 32.668 1237.625 31.818 Q 1238.45 30.968 1240.5 30.968 Q 1242.55 30.968 1243.375 31.818 Q 1244.2 32.668 1244.2 33.968 L 1244.2 34.868 Q 1244.2 36.168 1243.375 37.018 Q 1242.55 37.868 1240.5 37.868 Q 1238.45 37.868 1237.625 37.018 Q 1236.8 36.168 1236.8 34.868 Z M 248.95 3.368 L 248.95 2.568 Q 248.95 1.468 249.65 0.743 Q 250.35 0.018 252.1 0.018 Q 253.85 0.018 254.55 0.743 Q 255.25 1.468 255.25 2.568 L 255.25 3.368 Q 255.25 4.468 254.55 5.193 Q 253.85 5.918 252.1 5.918 Q 250.35 5.918 249.65 5.193 Q 248.95 4.468 248.95 3.368 Z M 458.95 3.368 L 458.95 2.568 Q 458.95 1.468 459.65 0.743 Q 460.35 0.018 462.1 0.018 Q 463.85 0.018 464.55 0.743 Q 465.25 1.468 465.25 2.568 L 465.25 3.368 Q 465.25 4.468 464.55 5.193 Q 463.85 5.918 462.1 5.918 Q 460.35 5.918 459.65 5.193 Q 458.95 4.468 458.95 3.368 Z M 1148.95 3.368 L 1148.95 2.568 Q 1148.95 1.468 1149.65 0.743 Q 1150.35 0.018 1152.1 0.018 Q 1153.85 0.018 1154.55 0.743 Q 1155.25 1.468 1155.25 2.568 L 1155.25 3.368 Q 1155.25 4.468 1154.55 5.193 Q 1153.85 5.918 1152.1 5.918 Q 1150.35 5.918 1149.65 5.193 Q 1148.95 4.468 1148.95 3.368 Z"/></g></svg>